<svg xmlns="http://www.w3.org/2000/svg" xmlns:xlink="http://www.w3.org/1999/xlink" viewBox="0 0 600 461.2"><defs><clipPath id="clip-path"><rect x="0.4" y="36.88" width="218.21" height="3" fill="none"/></clipPath></defs><g id="_600-px" data-name="600-px"><line x1="324.1" y1="89.49" x2="323.09" y2="92.32" fill="none" stroke="#6f7271" stroke-miterlimit="10"/><line x1="321.76" y1="96.03" x2="272.49" y2="233.3" fill="none" stroke="#6f7271" stroke-miterlimit="10" stroke-dasharray="5.91 3.94"/><polyline points="271.83 235.16 270.82 237.98 272.42 235.45" fill="none" stroke="#6f7271" stroke-miterlimit="10"/><line x1="274.51" y1="232.16" x2="320.49" y2="159.7" fill="none" stroke="#6f7271" stroke-miterlimit="10" stroke-dasharray="5.85 3.9"/><line x1="321.53" y1="158.05" x2="323.14" y2="155.52" fill="none" stroke="#6f7271" stroke-miterlimit="10"/><polygon points="319.23 91.03 323.64 90.77 326.89 93.78 326.32 83.31 319.23 91.03" fill="#6f7271"/><polygon points="324.92 160.31 322.41 156.67 318.04 155.95 326.66 149.98 324.92 160.31" fill="#6f7271"/><line x1="320.46" y1="212.91" x2="317.78" y2="214.26" fill="none" stroke="#6f7271" stroke-miterlimit="10"/><line x1="314.5" y1="215.92" x2="275.13" y2="235.8" fill="none" stroke="#6f7271" stroke-miterlimit="10" stroke-dasharray="5.51 3.68"/><polyline points="273.49 236.63 270.82 237.98 273.44 239.44" fill="none" stroke="#6f7271" stroke-miterlimit="10"/><line x1="276.73" y1="241.28" x2="316.31" y2="263.34" fill="none" stroke="#6f7271" stroke-miterlimit="10" stroke-dasharray="5.66 3.78"/><line x1="317.96" y1="264.26" x2="320.58" y2="265.72" fill="none" stroke="#6f7271" stroke-miterlimit="10"/><polygon points="315.86 210.67 319.25 213.52 319.54 217.94 326.32 209.95 315.86 210.67" fill="#6f7271"/><polygon points="315.9 267.77 319.4 265.06 319.87 260.66 326.32 268.92 315.9 267.77" fill="#6f7271"/><line x1="322.95" y1="325.15" x2="321.41" y2="322.57" fill="none" stroke="#6f7271" stroke-miterlimit="10"/><line x1="319.32" y1="319.08" x2="273.4" y2="242.3" fill="none" stroke="#6f7271" stroke-miterlimit="10" stroke-dasharray="6.1 4.07"/><polyline points="272.36 240.56 270.82 237.98 271.83 240.81" fill="none" stroke="#6f7271" stroke-miterlimit="10"/><line x1="273.16" y1="244.52" x2="322.42" y2="381.79" fill="none" stroke="#6f7271" stroke-miterlimit="10" stroke-dasharray="5.91 3.94"/><line x1="323.09" y1="383.65" x2="324.1" y2="386.47" fill="none" stroke="#6f7271" stroke-miterlimit="10"/><polygon points="324.86 320.41 322.25 323.98 317.87 324.59 326.32 330.79 324.86 320.41" fill="#6f7271"/><polygon points="319.23 384.94 323.64 385.19 326.89 382.19 326.32 392.65 319.23 384.94" fill="#6f7271"/><path d="M422.79,450.59h0l-2.81-4.12v6.23h-.85V445H420l2.8,4.2,2.81-4.2h.88v7.7h-.87v-6.24Z" fill="#6d6e71"/><path d="M429.59,445v7.7h-.87V445Z" fill="#6d6e71"/><path d="M434.76,452.7h-.88v-6.9h-2.59V445h6v.8h-2.58Z" fill="#6d6e71"/><path d="M443.14,449.23v3.47h-.87V445h.87v3.42h4.45V445h.87v7.7h-.87v-3.47Z" fill="#6d6e71"/><path d="M453.09,452.83a2.91,2.91,0,0,1-2.95-3,3,3,0,1,1,2.95,3Zm0-5.19a2.09,2.09,0,0,0-2.08,2.21,2.13,2.13,0,0,0,2.1,2.22,2.1,2.1,0,0,0,2.09-2.2A2.15,2.15,0,0,0,453.09,447.64Z" fill="#6d6e71"/><path d="M458.44,452.7h-.85V447h.85v1.49a2.44,2.44,0,0,1,2.32-1.59v.92h-.06a2.29,2.29,0,0,0-2.26,2.6Z" fill="#6d6e71"/><path d="M462.07,445.77v-.94h1v.94Zm.06,6.93V447H463v5.69Z" fill="#6d6e71"/><path d="M464.75,447.73V447h4.79v.54L465.76,452h3.78v.71h-4.93v-.54l3.78-4.43Z" fill="#6d6e71"/><path d="M473.66,452.83a2.91,2.91,0,0,1-3-3,3,3,0,1,1,3,3Zm0-5.19a2.09,2.09,0,0,0-2.08,2.21,2.13,2.13,0,0,0,2.1,2.22,2.1,2.1,0,0,0,2.09-2.2A2.15,2.15,0,0,0,473.66,447.64Z" fill="#6d6e71"/><path d="M479,452.7h-.84V447H479v1a2.18,2.18,0,0,1,1.95-1.11,2.08,2.08,0,0,1,2.18,2.28v3.53h-.85v-3.32a1.52,1.52,0,0,0-1.57-1.72,1.68,1.68,0,0,0-1.71,1.78Z" fill="#6d6e71"/><path d="M488.6,454.11V443.92h.72v10.19Z" fill="#6d6e71"/><path d="M495.72,452.7h-.85v-8h.85V448a2.16,2.16,0,0,1,1.95-1.11,2.09,2.09,0,0,1,2.18,2.28v3.53H499v-3.32a1.52,1.52,0,0,0-1.58-1.72,1.68,1.68,0,0,0-1.7,1.78Z" fill="#6d6e71"/><path d="M504.25,452.83a2.91,2.91,0,0,1-2.95-3,3,3,0,1,1,2.95,3Zm0-5.19a2.09,2.09,0,0,0-2.08,2.21,2.13,2.13,0,0,0,2.1,2.22,2.1,2.1,0,0,0,2.09-2.2A2.15,2.15,0,0,0,504.25,447.64Z" fill="#6d6e71"/><path d="M509.6,452.7h-.84V447h.84v1.49a2.44,2.44,0,0,1,2.32-1.59v.92h-.06a2.29,2.29,0,0,0-2.26,2.6Z" fill="#6d6e71"/><path d="M513.23,445.77v-.94h1v.94Zm.06,6.93V447h.84v5.69Z" fill="#6d6e71"/><path d="M515.91,447.73V447h4.79v.54L516.92,452h3.78v.71h-4.93v-.54l3.78-4.43Z" fill="#6d6e71"/><path d="M524.82,452.83a2.91,2.91,0,0,1-3-3,3,3,0,1,1,3,3Zm0-5.19a2.09,2.09,0,0,0-2.08,2.21,2.13,2.13,0,0,0,2.1,2.22,2.1,2.1,0,0,0,2.09-2.2A2.15,2.15,0,0,0,524.82,447.64Z" fill="#6d6e71"/><path d="M530.17,452.7h-.84V447h.84v1a2.18,2.18,0,0,1,2-1.11,2.08,2.08,0,0,1,2.18,2.28v3.53h-.85v-3.32a1.52,1.52,0,0,0-1.57-1.72,1.68,1.68,0,0,0-1.71,1.78Z" fill="#6d6e71"/><path d="M536.43,448.1l-.25-.69a4.64,4.64,0,0,1,2.07-.47,2.12,2.12,0,0,1,2.42,2.28v3.48h-.82v-.86a2.46,2.46,0,0,1-2.05,1,1.91,1.91,0,0,1-2.13-1.78c0-1.21,1-1.85,2.43-1.85a6.1,6.1,0,0,1,1.75.24v-.2c0-1-.62-1.55-1.69-1.55A4,4,0,0,0,536.43,448.1Zm.1,2.91c0,.72.66,1.14,1.43,1.14a1.71,1.71,0,0,0,1.9-1.54v-.55a5.93,5.93,0,0,0-1.67-.24C537.12,449.82,536.53,450.28,536.53,451Z" fill="#6d6e71"/><path d="M545.5,452.82a2.56,2.56,0,0,1-2.18-1.21v2.85h-.85V447h.85v1.15a2.54,2.54,0,0,1,2.18-1.27,3,3,0,0,1,0,5.93Zm-.16-5.17a2.21,2.21,0,0,0,0,4.41,2,2,0,0,0,2-2.2A2,2,0,0,0,545.34,447.65Z" fill="#6d6e71"/><path d="M552.8,452.82a2.56,2.56,0,0,1-2.18-1.21v2.85h-.85V447h.85v1.15a2.55,2.55,0,0,1,2.18-1.27,3,3,0,0,1,0,5.93Zm-.15-5.17a2.21,2.21,0,0,0,0,4.41,2,2,0,0,0,2-2.2A2.06,2.06,0,0,0,552.65,447.65Z" fill="#6d6e71"/><path d="M557,452.7v-1.15h1v1.15Z" fill="#6d6e71"/><path d="M566.29,446.89a2,2,0,0,1,2.11,2.29v3.52h-.85v-3.32c0-1.1-.55-1.72-1.47-1.72a1.6,1.6,0,0,0-1.58,1.76v3.28h-.83v-3.34c0-1.07-.56-1.7-1.47-1.7a1.65,1.65,0,0,0-1.58,1.8v3.24h-.85V447h.85v1a2.08,2.08,0,0,1,1.84-1.08,1.93,1.93,0,0,1,1.82,1.13A2.3,2.3,0,0,1,566.29,446.89Z" fill="#6d6e71"/><path d="M570.26,445.77v-.94h1v.94Zm0,6.93V447h.85v5.69Z" fill="#6d6e71"/><path d="M574.27,451.08a.84.84,0,0,0,1,.95,1.8,1.8,0,0,0,.82-.2v.73a2.13,2.13,0,0,1-1,.24,1.45,1.45,0,0,1-1.61-1.61v-3.43h-.79V447h.79V445.3h.85V447h1.81v.75h-1.81Z" fill="#6d6e71"/><path d="M577.47,452.7v-1.15h1v1.15Z" fill="#6d6e71"/><path d="M582.77,452.09a2.36,2.36,0,0,0,1.8-.8l.52.47a2.92,2.92,0,0,1-2.34,1.07,3,3,0,0,1-.11-5.94c1.69,0,2.65,1.34,2.65,3a2.54,2.54,0,0,1,0,.26h-4.51A2,2,0,0,0,582.77,452.09Zm1.66-2.55a1.86,1.86,0,0,0-1.81-1.93,2,2,0,0,0-1.85,1.93Z" fill="#6d6e71"/><path d="M591.34,452.7v-1.14a2.55,2.55,0,0,1-2.18,1.26,3,3,0,0,1,0-5.93,2.56,2.56,0,0,1,2.18,1.21v-3.43h.85v8Zm-2-5.05a2,2,0,0,0-2,2.2,2,2,0,0,0,2,2.21,2.21,2.21,0,0,0,0-4.41Z" fill="#6d6e71"/><path d="M598.12,447H599v5.69h-.84v-1a2.17,2.17,0,0,1-2,1.11,2.08,2.08,0,0,1-2.18-2.28V447h.85v3.33a1.51,1.51,0,0,0,1.57,1.71,1.68,1.68,0,0,0,1.71-1.78Z" fill="#6d6e71"/><g id="Rule_below_dek" data-name="Rule below dek"><g clip-path="url(#clip-path)"><g clip-path="url(#clip-path)"><line x1="218.61" y1="39.38" x2="0.4" y2="39.38" fill="none" stroke="#a32035" stroke-miterlimit="10"/></g></g></g><g id="Title_and_Dek" data-name="Title and Dek"><path d="M7.48,8.51c3.26,0,4.88,1.16,4.88,3.45,0,1.72-1,2.88-3.14,3.46,2.62.06,4,1.36,4,3.65,0,2.62-2,4.2-5.54,4.2H.88V22.19l1.29-.11.36-.35V10l-.36-.3L.88,9.59V8.51ZM6,15.09c2.29,0,3.35-.88,3.35-2.86,0-1.72-1-2.53-3.06-2.53-.29,0-.57,0-.88,0v5.32A3.89,3.89,0,0,0,6,15.09Zm.46,7c2.56,0,3.7-.86,3.7-3,0-1.87-1.08-2.79-3.3-2.79-.37,0-.86,0-1.45,0V22C5.76,22,6.11,22.06,6.44,22.06Z" fill="#a31f34"/><path d="M18.92,12.36v9.5l.33.33,1.23.09v1H14.72v-1l1.18-.09.31-.33V14.27H14.76v-.88l3.1-1ZM19.27,9a1.59,1.59,0,0,1-1.63,1.67A1.57,1.57,0,0,1,16,9a1.62,1.62,0,1,1,3.23,0Z" fill="#a31f34"/><path d="M33,13v1.26H30.6a3.34,3.34,0,0,1,.51,1.69c0,2.11-1.79,3.66-4.69,3.66a4.72,4.72,0,0,1-.64,0,2.27,2.27,0,0,0-.17.82,3.77,3.77,0,0,0,.06.59l1.5.2c3.19.46,4.82,1.12,4.82,3,0,2.07-2.38,3.9-5.92,3.9-2.91,0-4.56-1.24-4.56-3a2.31,2.31,0,0,1,2.27-2.42,2.61,2.61,0,0,1-.29-1.1,2.88,2.88,0,0,1,1.21-2.09A3.34,3.34,0,0,1,22,16.12c0-2.24,1.8-3.78,4.7-3.78a8,8,0,0,1,3,.63ZM24.2,24.68a2.37,2.37,0,0,0,2.55,2.2c1.59,0,2.62-.95,2.62-2.07s-.82-1.38-2.38-1.65l-1.87-.31A2.36,2.36,0,0,0,24.2,24.68Zm.59-8.76c0,1.67.75,2.67,1.81,2.67s1.78-1,1.78-2.69-.77-2.53-1.74-2.53S24.79,14.32,24.79,15.92Z" fill="#a31f34"/><path d="M54.27,15.9a7.15,7.15,0,0,1-2.7,6,8.11,8.11,0,0,1-5.22,1.38H39.93V22.19l1.34-.11.35-.35V10.05l-.35-.35-1.34-.11V8.51h6.42C51.46,8.51,54.27,11.28,54.27,15.9ZM44.53,22H45.8c3.5,0,5.2-2,5.2-6.16s-1.7-6.14-5.2-6.14H44.53Z" fill="#a31f34"/><path d="M58.8,23.47a2.77,2.77,0,0,1-2.88-2.86c0-2.53,2.09-3.19,6.67-4.2v-.66c0-1.59-.62-2.29-2.07-2.29a3.78,3.78,0,0,0-1.06.13v2.07h-2c-.66,0-1-.22-1-.82,0-1.25,1.89-2.55,4.79-2.55,3.11,0,4.12,1.08,4.12,3.9v5.7l.28.3,1.17.11v1H62.87L62.59,22A7,7,0,0,1,58.8,23.47Zm3.79-5.94c-2.6.57-3.76,1.14-3.76,2.6a1.53,1.53,0,0,0,1.65,1.65,4.94,4.94,0,0,0,2.11-.66Z" fill="#a31f34"/><path d="M67.43,14.16v-.83l1.63-.93,1.14-2.29h1.39v2.73h3.25v1.32H71.59v5.48c0,1.56.37,2.14,1.82,2.14a5.8,5.8,0,0,0,1.43-.16v1.06a10.07,10.07,0,0,1-3.36.7,3.24,3.24,0,0,1-1.83-.48c-.75-.51-.79-1.21-.79-2.33V14.16Z" fill="#a31f34"/><path d="M78.65,23.47a2.77,2.77,0,0,1-2.89-2.86c0-2.53,2.09-3.19,6.67-4.2v-.66c0-1.59-.61-2.29-2.07-2.29a3.67,3.67,0,0,0-1,.13v2.07h-2c-.66,0-1-.22-1-.82,0-1.25,1.89-2.55,4.8-2.55,3.1,0,4.11,1.08,4.11,3.9v5.7l.29.3,1.16.11v1H82.72L82.43,22A6.92,6.92,0,0,1,78.65,23.47Zm3.78-5.94c-2.59.57-3.76,1.14-3.76,2.6a1.54,1.54,0,0,0,1.65,1.65,4.94,4.94,0,0,0,2.11-.66Z" fill="#a31f34"/><path d="M101.62,8.35,106.68,22l1.29.22v1.08H102V22.19l1.39-.13.15-.28L102.25,18H97.46l-1.32,3.72.22.29,1.38.15v1.08H93V22.19L94.33,22l5-13.65ZM97.87,16.8h3.88l-2-5.43Z" fill="#a31f34"/><path d="M108.26,22.28l1.12-.09.31-.33V14.27h-1.5v-.88l3.17-1.05h1.06v1.32a8.42,8.42,0,0,1,3.76-1.32c2,0,3,1.18,3,3.63v5.89l.29.33,1.16.09v1h-5.39v-1l1-.09.31-.33V16.6c0-1.62-.6-2.37-2-2.37a7.94,7.94,0,0,0-2.09.37v7.26l.3.33,1,.09v1h-5.43Z" fill="#a31f34"/><path d="M124.65,23.47a2.76,2.76,0,0,1-2.88-2.86c0-2.53,2.09-3.19,6.66-4.2v-.66c0-1.59-.61-2.29-2.07-2.29a3.67,3.67,0,0,0-1,.13v2.07h-2c-.66,0-1-.22-1-.82,0-1.25,1.89-2.55,4.8-2.55,3.1,0,4.11,1.08,4.11,3.9v5.7l.29.3,1.17.11v1h-3.92L128.43,22A6.92,6.92,0,0,1,124.65,23.47Zm3.78-5.94c-2.59.57-3.76,1.14-3.76,2.6a1.54,1.54,0,0,0,1.65,1.65,4.9,4.9,0,0,0,2.11-.66Z" fill="#a31f34"/><path d="M133.36,22.3l1.28-.13.3-.31V8.93h-1.58V8.07L136.68,7h1V21.82l.33.35,1.28.13v1h-5.9Z" fill="#a31f34"/><path d="M145,12.58v.94l-1.12.14-.22.3,2.38,6.23,2.39-6.2-.19-.33-1.17-.14v-.94h4.23v.94l-1.19.2L145.9,24c-1.08,2.6-2.64,4.05-4.09,4.05a1.81,1.81,0,0,1-1.89-1.63,1.76,1.76,0,0,1,1.14-1.56L143,26.22a6.81,6.81,0,0,0,1.72-2.68l-3.92-9.82-1.32-.2v-.94Z" fill="#a31f34"/><path d="M151.29,14.16v-.83l1.63-.93,1.14-2.29h1.39v2.73h3.25v1.32h-3.25v5.48c0,1.56.37,2.14,1.82,2.14a5.8,5.8,0,0,0,1.43-.16v1.06a10.07,10.07,0,0,1-3.36.7,3.24,3.24,0,0,1-1.83-.48c-.75-.51-.79-1.21-.79-2.33V14.16Z" fill="#a31f34"/><path d="M163.61,12.36v9.5l.33.33,1.23.09v1h-5.76v-1l1.18-.09.31-.33V14.27h-1.45v-.88l3.1-1ZM164,9a1.59,1.59,0,0,1-1.63,1.67A1.57,1.57,0,0,1,160.73,9,1.62,1.62,0,1,1,164,9Z" fill="#a31f34"/><path d="M171.51,23.45A5.07,5.07,0,0,1,166.23,18a5.46,5.46,0,0,1,5.67-5.69c2.27,0,3.63,1.05,3.63,2.39a1.49,1.49,0,0,1-1.58,1.5,2.17,2.17,0,0,1-1.3-.42V13.48a3,3,0,0,0-.55-.07c-1.54,0-2.86,1.59-2.86,4.1s1.32,4.2,3.37,4.2a5.29,5.29,0,0,0,1.45-.24,8.62,8.62,0,0,0,1.61-.75v1.56A8.47,8.47,0,0,1,171.51,23.45Z" fill="#a31f34"/><path d="M184.62,15.75H183.3l-.22-1.65-.26-.25a3.41,3.41,0,0,0-1.46-.35c-1.07,0-1.67.51-1.67,1.32s.75,1.3,2.05,1.94c2,.94,3.21,1.54,3.21,3.12,0,2.23-1.65,3.63-4.49,3.63a13.52,13.52,0,0,1-3.63-.55V19.71h1.34l.25,1.89.22.24a3.87,3.87,0,0,0,1.87.46c1.18,0,1.84-.61,1.84-1.58,0-1.21-1.18-1.41-2.9-2.27S177,16.87,177,15.55c0-1.92,1.6-3.28,4.31-3.28a10.41,10.41,0,0,1,3.32.55Z" fill="#a31f34"/><path d="M200.77,23.54a8,8,0,0,1-4.05-1,7.6,7.6,0,0,1-3.65-6.65,7.61,7.61,0,0,1,2.28-5.63,7.7,7.7,0,0,1,5.55-2,13.11,13.11,0,0,1,4.49.82v3.67h-1.63l-.42-2.35L203,10a4.74,4.74,0,0,0-1.73-.33c-3,0-5,2.31-5,6.21s2,6.27,5.28,6.27a5.65,5.65,0,0,0,1.34-.2l.34-.33L203.8,19h1.59v3.78A13.6,13.6,0,0,1,200.77,23.54Z" fill="#a31f34"/><path d="M210,23.47a2.77,2.77,0,0,1-2.88-2.86c0-2.53,2.09-3.19,6.67-4.2v-.66c0-1.59-.62-2.29-2.07-2.29a3.78,3.78,0,0,0-1.06.13v2.07h-2c-.66,0-1-.22-1-.82,0-1.25,1.89-2.55,4.79-2.55,3.11,0,4.12,1.08,4.12,3.9v5.7l.28.3,1.17.11v1H214L213.75,22A7,7,0,0,1,210,23.47Zm3.79-5.94c-2.6.57-3.76,1.14-3.76,2.6a1.53,1.53,0,0,0,1.64,1.65,5,5,0,0,0,2.12-.66Z" fill="#a31f34"/><path d="M218.85,22.28l1.12-.09.31-.33V14.27h-1.5v-.88L222,12.34H223v1.32a8.42,8.42,0,0,1,3.76-1.32c2,0,3,1.18,3,3.63v5.89l.29.33,1.17.09v1h-5.39v-1l.94-.09.31-.33V16.6c0-1.62-.59-2.37-2-2.37a7.94,7.94,0,0,0-2.09.37v7.26l.31.33,1,.09v1h-5.43Z" fill="#a31f34"/><path d="M232.53,13.92a3.55,3.55,0,0,0,2.05-3,2.36,2.36,0,0,0,0-.36h-1.32a1.73,1.73,0,0,1-.42-1.12,1.44,1.44,0,0,1,1.52-1.52,2,2,0,0,1,2,2.29c0,1.81-1.15,3.43-3.3,4.38Z" fill="#a31f34"/><path d="M237.51,14.16v-.83l1.62-.93,1.15-2.29h1.39v2.73h3.25v1.32h-3.25v5.48c0,1.56.37,2.14,1.82,2.14a5.8,5.8,0,0,0,1.43-.16v1.06a10.07,10.07,0,0,1-3.37.7,3.21,3.21,0,0,1-1.82-.48c-.75-.51-.79-1.21-.79-2.33V14.16Z" fill="#a31f34"/><path d="M259.73,8.35,264.79,22l1.3.22v1.08h-5.95V22.19l1.39-.13.15-.28L260.36,18h-4.79l-1.32,3.72.22.29,1.38.15v1.08h-4.73V22.19l1.32-.19,5-13.65ZM256,16.8h3.87l-2-5.43Z" fill="#a31f34"/><path d="M266.37,22.28l1.12-.09.31-.33V14.27h-1.5v-.88l3.17-1.05h1.06v1.32a8.42,8.42,0,0,1,3.76-1.32c2,0,3,1.18,3,3.63v5.89l.29.33,1.17.09v1h-5.4v-1l1-.09.31-.33V16.6c0-1.62-.59-2.37-2-2.37a7.94,7.94,0,0,0-2.09.37v7.26l.31.33,1,.09v1h-5.43Z" fill="#a31f34"/><path d="M287.69,15.75h-1.32l-.22-1.65-.27-.25a3.33,3.33,0,0,0-1.45-.35c-1.08,0-1.67.51-1.67,1.32s.75,1.3,2.05,1.94c1.95.94,3.21,1.54,3.21,3.12,0,2.23-1.65,3.63-4.49,3.63A13.46,13.46,0,0,1,279.9,23V19.71h1.34l.24,1.89.22.24a3.92,3.92,0,0,0,1.87.46c1.19,0,1.85-.61,1.85-1.58,0-1.21-1.19-1.41-2.9-2.27s-2.47-1.58-2.47-2.9c0-1.92,1.61-3.28,4.32-3.28a10.41,10.41,0,0,1,3.32.55Z" fill="#a31f34"/><path d="M294.27,12.56v1l-1.08.15L293,14l1.78,6.34,2.57-7.81h2.2l2.4,7.81L303.84,14l-.16-.31-1.16-.13v-1h4.15v1l-1.23.15-3,9.55h-2.22l-2.44-7.9-2.62,7.9H293l-2.84-9.57-1.32-.13v-1Z" fill="#a31f34"/><path d="M317.21,22.17a8.92,8.92,0,0,1-4.55,1.3A5.17,5.17,0,0,1,307.22,18a5.33,5.33,0,0,1,5.44-5.68c2.88,0,4.57,1.8,4.57,5v.42H310v.07c0,2.53,1.36,4,3.54,4a6.65,6.65,0,0,0,3.63-1.21Zm-2.86-5.92c0-1.82-.7-2.77-1.91-2.77s-2.22,1.1-2.4,3h4.31Z" fill="#a31f34"/><path d="M318.57,22.28l1.17-.09.31-.33V14.27h-1.59v-.88l3.24-1.05h1.06l-.09,2.26a17.13,17.13,0,0,1,2.57-2.24,4.18,4.18,0,0,1,.49,0,3.25,3.25,0,0,1,1.45.35l-.29,3h-1.14a1.59,1.59,0,0,0-1.37-.81,3.25,3.25,0,0,0-1.62.64v6.31l.33.33,1.56.09v1h-6.08Z" fill="#a31f34"/><path d="M342,8.35,347,22l1.3.22v1.08h-5.94V22.19l1.38-.13.16-.28L342.6,18h-4.8l-1.32,3.72.22.29,1.39.15v1.08h-4.73V22.19l1.32-.19,5-13.65Zm-3.74,8.45h3.87l-2-5.43Z" fill="#a31f34"/><path d="M348.43,22.3l1.27-.13.31-.31V8.93h-1.58V8.07L351.75,7h1V21.82l.33.35,1.27.13v1h-5.89Z" fill="#a31f34"/><path d="M355.11,22.3l1.28-.13.31-.31V8.93h-1.59V8.07L358.44,7h1V21.82l.33.35,1.27.13v1h-5.9Z" fill="#a31f34"/><path d="M380.66,25.87a8.53,8.53,0,0,0,2-.27v1.13a17.37,17.37,0,0,1-3.63.46c-3,0-4.47-1.17-4.47-3.72v-.09c-3.67-.55-6-3.48-6-7.5a8.4,8.4,0,0,1,1.27-4.56,7.68,7.68,0,0,1,11-1.47A7.87,7.87,0,0,1,383.54,16a7.17,7.17,0,0,1-5.85,7.41C377.77,25.08,378.7,25.87,380.66,25.87Zm-4.54-3.7c2.36,0,4.07-2.33,4.07-6.27S378.41,9.59,376,9.59s-4.09,2.31-4.09,6.22S373.7,22.17,376.12,22.17Z" fill="#a31f34"/><path d="M388.91,12.29v6.82c0,1.72.57,2.47,2.09,2.47a6.89,6.89,0,0,0,1.89-.35v-7h-1.43v-.86l3.12-1.06h1v9.57l.31.33,1.15.09v1h-4.16V22.06a6.93,6.93,0,0,1-3.7,1.41c-2,0-3-1.23-3-3.76v-5.5h-1.43v-.86l3.1-1.06Z" fill="#a31f34"/><path d="M408.25,22.17a9,9,0,0,1-4.56,1.3A5.16,5.16,0,0,1,398.26,18a5.32,5.32,0,0,1,5.43-5.68c2.88,0,4.58,1.8,4.58,5v.42h-7.2v.07c0,2.53,1.37,4,3.54,4a6.7,6.7,0,0,0,3.64-1.21Zm-2.87-5.92c0-1.82-.7-2.77-1.91-2.77s-2.22,1.1-2.4,3h4.31Z" fill="#a31f34"/><path d="M417.66,15.75h-1.32l-.22-1.65-.27-.25a3.33,3.33,0,0,0-1.45-.35c-1.07,0-1.67.51-1.67,1.32s.75,1.3,2,1.94c2,.94,3.21,1.54,3.21,3.12,0,2.23-1.65,3.63-4.49,3.63a13.46,13.46,0,0,1-3.63-.55V19.71h1.34l.24,1.89.22.24a4,4,0,0,0,1.88.46c1.18,0,1.84-.61,1.84-1.58,0-1.21-1.19-1.41-2.9-2.27S410,16.87,410,15.55c0-1.92,1.61-3.28,4.32-3.28a10.41,10.41,0,0,1,3.32.55Z" fill="#a31f34"/><path d="M419.22,14.16v-.83l1.63-.93L422,10.11h1.39v2.73h3.26v1.32h-3.26v5.48c0,1.56.37,2.14,1.83,2.14a5.85,5.85,0,0,0,1.43-.16v1.06a10.12,10.12,0,0,1-3.37.7,3.24,3.24,0,0,1-1.83-.48c-.75-.51-.79-1.21-.79-2.33V14.16Z" fill="#a31f34"/><path d="M431.54,12.36v9.5l.33.33,1.23.09v1h-5.76v-1l1.19-.09.31-.33V14.27h-1.46v-.88l3.11-1ZM431.89,9a1.59,1.59,0,0,1-1.63,1.67A1.57,1.57,0,0,1,428.66,9a1.62,1.62,0,1,1,3.23,0Z" fill="#a31f34"/><path d="M445.42,18c0,3.26-2.22,5.48-5.69,5.48a5.22,5.22,0,0,1-5.53-5.53,5.34,5.34,0,0,1,5.7-5.63C443.27,12.29,445.42,14.49,445.42,18Zm-8.16-.11c0,2.86,1,4.42,2.53,4.42s2.6-1.52,2.6-4.38-1-4.44-2.58-4.44S437.26,15,437.26,17.86Z" fill="#a31f34"/><path d="M446.76,22.28l1.13-.09.3-.33V14.27H446.7v-.88l3.17-1.05h1.05v1.32a8.49,8.49,0,0,1,3.77-1.32c2,0,3,1.18,3,3.63v5.89l.28.33,1.17.09v1h-5.39v-1l.95-.09.3-.33V16.6c0-1.62-.59-2.37-2-2.37a8,8,0,0,0-2.09.37v7.26l.31.33,1,.09v1h-5.44Z" fill="#a31f34"/><path d="M468.08,15.75h-1.32l-.22-1.65-.26-.25a3.36,3.36,0,0,0-1.45-.35c-1.08,0-1.67.51-1.67,1.32s.74,1.3,2,1.94c2,.94,3.21,1.54,3.21,3.12,0,2.23-1.65,3.63-4.49,3.63a13.58,13.58,0,0,1-3.63-.55V19.71h1.35l.24,1.89.22.24a3.89,3.89,0,0,0,1.87.46c1.19,0,1.85-.61,1.85-1.58,0-1.21-1.19-1.41-2.91-2.27s-2.46-1.58-2.46-2.9c0-1.92,1.6-3.28,4.31-3.28a10.41,10.41,0,0,1,3.32.55Z" fill="#a31f34"/><path d="M490.61,15.9a7.15,7.15,0,0,1-2.7,6,8.11,8.11,0,0,1-5.22,1.38h-6.43V22.19l1.35-.11.35-.35V10.05l-.35-.35-1.35-.11V8.51h6.43C487.8,8.51,490.61,11.28,490.61,15.9ZM480.86,22h1.28c3.5,0,5.19-2,5.19-6.16s-1.69-6.14-5.19-6.14h-1.28Z" fill="#a31f34"/><path d="M496.24,12.36v9.5l.33.33,1.23.09v1H492v-1l1.19-.09.31-.33V14.27h-1.46v-.88l3.11-1ZM496.59,9a1.62,1.62,0,1,1-3.23,0,1.62,1.62,0,1,1,3.23,0Z" fill="#a31f34"/><path d="M498.73,22.28l1.16-.09.31-.33V14.27h-1.58v-.88l3.23-1.05h1.06l-.09,2.26a17.13,17.13,0,0,1,2.57-2.24,4.18,4.18,0,0,1,.49,0,3.22,3.22,0,0,1,1.45.35l-.29,3H505.9a1.57,1.57,0,0,0-1.36-.81,3.28,3.28,0,0,0-1.63.64v6.31l.33.33,1.56.09v1h-6.07Z" fill="#a31f34"/><path d="M518.16,22.17a9,9,0,0,1-4.56,1.3A5.16,5.16,0,0,1,508.17,18a5.32,5.32,0,0,1,5.43-5.68c2.88,0,4.58,1.8,4.58,5v.42H511v.07c0,2.53,1.37,4,3.54,4a6.7,6.7,0,0,0,3.64-1.21Zm-2.87-5.92c0-1.82-.7-2.77-1.91-2.77s-2.22,1.1-2.4,3h4.31Z" fill="#a31f34"/><path d="M524.93,23.45A5.07,5.07,0,0,1,519.65,18a5.46,5.46,0,0,1,5.68-5.69c2.26,0,3.63,1.05,3.63,2.39a1.5,1.5,0,0,1-1.59,1.5,2.17,2.17,0,0,1-1.3-.42V13.48a2.86,2.86,0,0,0-.55-.07c-1.54,0-2.86,1.59-2.86,4.1s1.32,4.2,3.37,4.2a5.29,5.29,0,0,0,1.45-.24,8.34,8.34,0,0,0,1.61-.75v1.56A8.47,8.47,0,0,1,524.93,23.45Z" fill="#a31f34"/><path d="M529.77,14.16v-.83l1.63-.93,1.14-2.29h1.39v2.73h3.25v1.32h-3.25v5.48c0,1.56.37,2.14,1.82,2.14a5.8,5.8,0,0,0,1.43-.16v1.06a10.07,10.07,0,0,1-3.36.7A3.24,3.24,0,0,1,532,22.9c-.75-.51-.79-1.21-.79-2.33V14.16Z" fill="#a31f34"/><path d="M537.73,22.3l1.28-.13.31-.31V8.93h-1.59V8.07L541.05,7h1V21.82l.33.35,1.28.13v1h-5.9Z" fill="#a31f34"/><path d="M549.42,12.58v.94l-1.13.14-.22.3,2.38,6.23,2.4-6.2-.2-.33-1.17-.14v-.94h4.23v.94l-1.19.2L550.27,24c-1.08,2.6-2.64,4.05-4.09,4.05a1.81,1.81,0,0,1-1.89-1.63,1.76,1.76,0,0,1,1.14-1.56l1.92,1.32a6.92,6.92,0,0,0,1.71-2.68l-3.91-9.82-1.32-.2v-.94Z" fill="#a31f34"/></g><rect x="15.35" y="55.61" width="256" height="364.74" fill="#d2cecc" stroke="#6f7271" stroke-miterlimit="10" stroke-width="2"/><rect x="330.65" y="55.61" width="254" height="55.4" fill="#d2cecc" stroke="#6f7271" stroke-miterlimit="10" stroke-width="2"/><rect x="330.65" y="117.48" width="254" height="55.4" fill="#d2cecc" stroke="#6f7271" stroke-miterlimit="10" stroke-width="2"/><rect x="330.65" y="179.35" width="254" height="55.4" fill="#d2cecc" stroke="#6f7271" stroke-miterlimit="10" stroke-width="2"/><rect x="330.65" y="241.22" width="254" height="55.4" fill="#d2cecc" stroke="#6f7271" stroke-miterlimit="10" stroke-width="2"/><rect x="330.65" y="303.08" width="254" height="55.4" fill="#d2cecc" stroke="#6f7271" stroke-miterlimit="10" stroke-width="2"/><rect x="330.65" y="364.95" width="254" height="55.4" fill="#d2cecc" stroke="#6f7271" stroke-miterlimit="10" stroke-width="2"/><path d="M93.76,218v-5.51H88.18V218h-3V204.29h3v5.44h5.58v-5.44h3V218Z" fill="#231f20"/><path d="M104.93,218.27a5.47,5.47,0,0,1-5.67-5.44v0a5.7,5.7,0,0,1,11.39,0v0A5.53,5.53,0,0,1,104.93,218.27Zm2.77-5.48a2.8,2.8,0,0,0-2.77-2.91,2.7,2.7,0,0,0-2.73,2.87v0A2.8,2.8,0,0,0,105,215.7a2.7,2.7,0,0,0,2.73-2.87Z" fill="#231f20"/><path d="M124.14,218.11h-2.69l-2-6.46-2.06,6.46h-2.67l-3.24-10.6h3l1.69,6.38,2-6.42h2.57l2,6.44,1.73-6.4h3Z" fill="#231f20"/><path d="M140.08,218.27a5.36,5.36,0,0,1-5.47-5.44v0a5.4,5.4,0,0,1,5.51-5.48,5.19,5.19,0,0,1,4.21,1.77l-1.83,2a3.11,3.11,0,0,0-2.4-1.16,2.69,2.69,0,0,0-2.55,2.87v0a2.7,2.7,0,0,0,2.67,2.91,3.34,3.34,0,0,0,2.42-1.12l1.74,1.77A5.31,5.31,0,0,1,140.08,218.27Z" fill="#231f20"/><path d="M152.5,218V216.9a4.08,4.08,0,0,1-3.19,1.33c-2,0-3.61-1.14-3.61-3.22v0c0-2.3,1.75-3.36,4.24-3.36a7.42,7.42,0,0,1,2.58.44v-.18c0-1.24-.77-1.93-2.26-1.93a7.82,7.82,0,0,0-2.91.57l-.75-2.28a9.32,9.32,0,0,1,4.09-.84c3.26,0,4.69,1.69,4.69,4.54V218Zm.05-4.24a4.68,4.68,0,0,0-1.9-.39c-1.28,0-2.06.51-2.06,1.45v0c0,.81.67,1.28,1.63,1.28,1.39,0,2.33-.77,2.33-1.85Z" fill="#231f20"/><path d="M164.61,218v-5.87c0-1.41-.66-2.14-1.8-2.14s-1.87.73-1.87,2.14V218h-3V207.51h3V209a3.73,3.73,0,0,1,3.08-1.69c2.26,0,3.58,1.49,3.58,3.91V218Z" fill="#231f20"/><path d="M187.9,218.11h-2.69l-2-6.46-2.06,6.46h-2.67l-3.24-10.6h3l1.69,6.38,2-6.42h2.57l2,6.44,1.73-6.4h3Z" fill="#231f20"/><path d="M202.28,213.81H195a2.43,2.43,0,0,0,2.57,2.06,3.42,3.42,0,0,0,2.55-1.08l1.71,1.52a5.56,5.56,0,0,1-9.8-3.48v0a5.25,5.25,0,0,1,5.21-5.48c3.51,0,5.12,2.73,5.12,5.72v0C202.32,213.36,202.3,213.54,202.28,213.81Zm-5.08-4.1a2.34,2.34,0,0,0-2.28,2.24h4.49A2.25,2.25,0,0,0,197.2,209.71Z" fill="#231f20"/><path d="M70.72,226.93v-2.65h3.14v2.65Zm.08,11.69V228.09h3v10.53Z" fill="#231f20"/><path d="M83.25,238.62v-5.88c0-1.41-.67-2.14-1.81-2.14s-1.86.73-1.86,2.14v5.88h-3V228.09h3v1.49a3.72,3.72,0,0,1,3.08-1.69c2.26,0,3.57,1.5,3.57,3.91v6.82Z" fill="#231f20"/><path d="M93.8,238.85a5.37,5.37,0,0,1-5.48-5.44v0a5.4,5.4,0,0,1,5.51-5.48A5.19,5.19,0,0,1,98,229.66l-1.83,2a3.06,3.06,0,0,0-2.4-1.16,2.68,2.68,0,0,0-2.55,2.86v0a2.7,2.7,0,0,0,2.67,2.91,3.34,3.34,0,0,0,2.42-1.12l1.75,1.77A5.31,5.31,0,0,1,93.8,238.85Z" fill="#231f20"/><path d="M106.23,231c-2,0-3.2,1.19-3.2,3.71v3.89h-3V228.09h3v2.12a3.26,3.26,0,0,1,3.35-2.32V231Z" fill="#231f20"/><path d="M117.73,234.39h-7.32a2.44,2.44,0,0,0,2.57,2.07,3.5,3.5,0,0,0,2.56-1.08l1.7,1.51a5.56,5.56,0,0,1-9.8-3.48v0a5.25,5.25,0,0,1,5.21-5.48c3.51,0,5.12,2.73,5.12,5.72v0C117.77,233.94,117.75,234.12,117.73,234.39Zm-5.08-4.1a2.35,2.35,0,0,0-2.28,2.24h4.5A2.26,2.26,0,0,0,112.65,230.29Z" fill="#231f20"/><path d="M126.16,238.62v-1.14a4.07,4.07,0,0,1-3.18,1.33c-2,0-3.61-1.14-3.61-3.22v0c0-2.3,1.74-3.36,4.24-3.36a7.36,7.36,0,0,1,2.57.44v-.18c0-1.24-.77-1.92-2.26-1.92a7.85,7.85,0,0,0-2.91.56l-.74-2.27a9.3,9.3,0,0,1,4.08-.85c3.26,0,4.7,1.69,4.7,4.54v6.11Zm.06-4.25a4.73,4.73,0,0,0-1.91-.39c-1.27,0-2.06.51-2.06,1.45v0c0,.81.67,1.28,1.63,1.28,1.4,0,2.34-.77,2.34-1.85Z" fill="#231f20"/><path d="M135.31,238.81a7.35,7.35,0,0,1-4.51-1.59l1.27-2a6,6,0,0,0,3.32,1.25c.86,0,1.26-.31,1.26-.78v0c0-.65-1-.86-2.18-1.22-1.48-.43-3.14-1.12-3.14-3.16v0c0-2.14,1.72-3.34,3.84-3.34a7.25,7.25,0,0,1,3.93,1.22L138,231.21a6.21,6.21,0,0,0-2.84-1c-.73,0-1.1.32-1.1.73v0c0,.59,1,.86,2.14,1.25,1.47.49,3.18,1.2,3.18,3.13v0C139.34,237.75,137.59,238.81,135.31,238.81Z" fill="#231f20"/><path d="M151.26,234.39h-7.33a2.45,2.45,0,0,0,2.58,2.07,3.48,3.48,0,0,0,2.55-1.08l1.71,1.51a5.56,5.56,0,0,1-9.8-3.48v0a5.24,5.24,0,0,1,5.2-5.48c3.52,0,5.13,2.73,5.13,5.72v0C151.3,233.94,151.28,234.12,151.26,234.39Zm-5.09-4.1a2.35,2.35,0,0,0-2.28,2.24h4.5A2.26,2.26,0,0,0,146.17,230.29Z" fill="#231f20"/><path d="M163.1,238.81a7.4,7.4,0,0,1-4.52-1.59l1.28-2a6,6,0,0,0,3.32,1.25c.86,0,1.26-.31,1.26-.78v0c0-.65-1-.86-2.18-1.22-1.48-.43-3.15-1.12-3.15-3.16v0c0-2.14,1.73-3.34,3.85-3.34a7.25,7.25,0,0,1,3.93,1.22l-1.14,2.06a6.21,6.21,0,0,0-2.85-1c-.72,0-1.1.32-1.1.73v0c0,.59,1,.86,2.15,1.25,1.47.49,3.18,1.2,3.18,3.13v0C167.13,237.75,165.38,238.81,163.1,238.81Z" fill="#231f20"/><path d="M175.43,238.62v-1.14a4,4,0,0,1-3.18,1.33c-2,0-3.61-1.14-3.61-3.22v0c0-2.3,1.75-3.36,4.24-3.36a7.32,7.32,0,0,1,2.57.44v-.18c0-1.24-.76-1.92-2.25-1.92a7.81,7.81,0,0,0-2.91.56l-.75-2.27a9.31,9.31,0,0,1,4.09-.85c3.26,0,4.69,1.69,4.69,4.54v6.11Zm.06-4.25a4.68,4.68,0,0,0-1.9-.39c-1.28,0-2.06.51-2.06,1.45v0c0,.81.66,1.28,1.63,1.28,1.39,0,2.33-.77,2.33-1.85Z" fill="#231f20"/><path d="M181,238.62V224.28h3v14.34Z" fill="#231f20"/><path d="M196.6,234.39h-7.32a2.44,2.44,0,0,0,2.57,2.07,3.5,3.5,0,0,0,2.56-1.08l1.7,1.51a5.56,5.56,0,0,1-9.8-3.48v0a5.25,5.25,0,0,1,5.21-5.48c3.51,0,5.12,2.73,5.12,5.72v0C196.64,233.94,196.62,234.12,196.6,234.39Zm-5.08-4.1a2.35,2.35,0,0,0-2.28,2.24h4.5A2.26,2.26,0,0,0,191.52,230.29Z" fill="#231f20"/><path d="M202.56,238.81a7.36,7.36,0,0,1-4.52-1.59l1.28-2a5.93,5.93,0,0,0,3.31,1.25c.87,0,1.26-.31,1.26-.78v0c0-.65-1-.86-2.18-1.22-1.47-.43-3.14-1.12-3.14-3.16v0c0-2.14,1.73-3.34,3.85-3.34a7.28,7.28,0,0,1,3.93,1.22l-1.14,2.06a6.21,6.21,0,0,0-2.85-1c-.73,0-1.1.32-1.1.73v0c0,.59,1,.86,2.14,1.25,1.47.49,3.18,1.2,3.18,3.13v0C206.58,237.75,204.83,238.81,202.56,238.81Z" fill="#231f20"/><path d="M213.65,228.86c0-.91-.67-1.42-1.8-1.42a4,4,0,0,0-2.95,1.36l-1.81-2a6.22,6.22,0,0,1,4.81-2.12c2.83,0,4.76,1.46,4.76,4.09s-1.73,3.53-3.87,4l-.22,1.2h-2l-.45-3.18.1-.1C212.69,230.56,213.65,229.92,213.65,228.86Zm-3.73,9.76v-3.15h3.18v3.15Z" fill="#231f20"/><path d="M369.9,78.27h.91l2.69,8.2,2.8-8.17h1.16L374,88.18H373l-2.69-8-2.7,8h-.92L363.2,78.3h1.21l2.8,8.17Z" fill="#231f20"/><path d="M380.35,88.11h-1.07V77.88h1.07v4.25a2.75,2.75,0,0,1,2.48-1.42,2.65,2.65,0,0,1,2.78,2.9v4.5h-1.08V83.88a1.93,1.93,0,0,0-2-2.19A2.14,2.14,0,0,0,380.35,84Z" fill="#231f20"/><path d="M391.09,87.34a3,3,0,0,0,2.29-1l.67.6a3.75,3.75,0,0,1-3,1.36,3.61,3.61,0,0,1-3.62-3.79,3.57,3.57,0,0,1,3.47-3.78c2.15,0,3.38,1.71,3.38,3.84,0,.1,0,.21,0,.34h-5.75A2.54,2.54,0,0,0,391.09,87.34Zm2.12-3.25a2.39,2.39,0,0,0-2.31-2.47,2.5,2.5,0,0,0-2.36,2.47Z" fill="#231f20"/><path d="M397.27,88.11h-1.08V80.87h1.08v1.89a3.08,3.08,0,0,1,3-2V81.9h-.08c-1.59,0-2.87,1.14-2.87,3.32Z" fill="#231f20"/><path d="M404.74,87.34a3,3,0,0,0,2.29-1l.67.6a3.75,3.75,0,0,1-3,1.36,3.61,3.61,0,0,1-3.62-3.79,3.58,3.58,0,0,1,3.48-3.78c2.14,0,3.37,1.71,3.37,3.84,0,.1,0,.21,0,.34h-5.75A2.54,2.54,0,0,0,404.74,87.34Zm2.12-3.25a2.39,2.39,0,0,0-2.31-2.47,2.5,2.5,0,0,0-2.36,2.47Z" fill="#231f20"/><path d="M419.85,88.11V86.65a3.25,3.25,0,0,1-2.77,1.61,3.79,3.79,0,0,1,0-7.55,3.27,3.27,0,0,1,2.77,1.54V77.88h1.08V88.11Zm-2.58-6.43a2.56,2.56,0,0,0-2.55,2.8,2.62,2.62,0,0,0,2.55,2.82,2.82,2.82,0,0,0,0-5.62Z" fill="#231f20"/><path d="M426.64,88.28a3.72,3.72,0,0,1-3.76-3.77,3.76,3.76,0,0,1,3.79-3.8,3.72,3.72,0,0,1,3.76,3.77A3.76,3.76,0,0,1,426.64,88.28Zm0-6.62A2.67,2.67,0,0,0,424,84.48a2.72,2.72,0,0,0,2.68,2.83,2.67,2.67,0,0,0,2.66-2.8A2.74,2.74,0,0,0,426.64,81.66Z" fill="#231f20"/><path d="M439.84,88.28a3.79,3.79,0,1,1,2.9-6.28l-.71.76a2.92,2.92,0,0,0-2.2-1.1,2.68,2.68,0,0,0-2.59,2.82,2.71,2.71,0,0,0,2.66,2.83,3,3,0,0,0,2.21-1.08l.69.65A3.75,3.75,0,0,1,439.84,88.28Z" fill="#231f20"/><path d="M449.71,80.87h1.07v7.24h-1.07V86.85a2.76,2.76,0,0,1-2.48,1.41,2.64,2.64,0,0,1-2.77-2.9V80.87h1.08V85.1a1.93,1.93,0,0,0,2,2.18A2.14,2.14,0,0,0,449.71,85Z" fill="#231f20"/><path d="M455.59,88.25a5,5,0,0,1-3-1.07l.55-.77a4.21,4.21,0,0,0,2.51.93c.86,0,1.5-.45,1.5-1.15v0c0-.73-.86-1-1.81-1.27-1.14-.33-2.4-.72-2.4-2v0a2.2,2.2,0,0,1,2.47-2.07,4.94,4.94,0,0,1,2.6.8l-.49.81a4.12,4.12,0,0,0-2.14-.7c-.85,0-1.4.45-1.4,1v0c0,.69.9,1,1.86,1.25,1.12.33,2.33.77,2.33,2.07v0C458.17,87.45,457,88.25,455.59,88.25Z" fill="#231f20"/><path d="M461.48,86.05a1.07,1.07,0,0,0,1.22,1.2,2.28,2.28,0,0,0,1.05-.25v.93a2.77,2.77,0,0,1-1.3.3,1.84,1.84,0,0,1-2-2V81.82h-1v-.95h1V78.68h1.07v2.19h2.3v.95h-2.3Z" fill="#231f20"/><path d="M468.78,88.28A3.72,3.72,0,0,1,465,84.51a3.76,3.76,0,0,1,3.79-3.8,3.72,3.72,0,0,1,3.76,3.77A3.76,3.76,0,0,1,468.78,88.28Zm0-6.62a2.67,2.67,0,0,0-2.65,2.82,2.72,2.72,0,0,0,2.68,2.83,2.67,2.67,0,0,0,2.66-2.8A2.75,2.75,0,0,0,468.78,81.66Z" fill="#231f20"/><path d="M482.81,80.71a2.6,2.6,0,0,1,2.69,2.92v4.48h-1.08V83.88c0-1.4-.7-2.19-1.88-2.19a2,2,0,0,0-2,2.24v4.18h-1.06V83.85c0-1.36-.72-2.16-1.87-2.16a2.11,2.11,0,0,0-2,2.29v4.13h-1.07V80.87h1.07v1.21a2.67,2.67,0,0,1,2.34-1.37,2.46,2.46,0,0,1,2.33,1.44A2.91,2.91,0,0,1,482.81,80.71Z" fill="#231f20"/><path d="M491,87.34a3,3,0,0,0,2.29-1l.67.6a3.75,3.75,0,0,1-3,1.36,3.61,3.61,0,0,1-3.62-3.79,3.58,3.58,0,0,1,3.48-3.78c2.14,0,3.37,1.71,3.37,3.84,0,.1,0,.21,0,.34h-5.75A2.54,2.54,0,0,0,491,87.34Zm2.12-3.25a2.39,2.39,0,0,0-2.31-2.47,2.5,2.5,0,0,0-2.36,2.47Z" fill="#231f20"/><path d="M497.2,88.11h-1.08V80.87h1.08v1.89a3.08,3.08,0,0,1,2.95-2V81.9h-.08c-1.58,0-2.87,1.14-2.87,3.32Z" fill="#231f20"/><path d="M504.18,88.25a5,5,0,0,1-3-1.07l.54-.77a4.26,4.26,0,0,0,2.51.93c.87,0,1.5-.45,1.5-1.15v0c0-.73-.86-1-1.81-1.27-1.13-.33-2.39-.72-2.39-2v0A2.19,2.19,0,0,1,504,80.74a5,5,0,0,1,2.61.8l-.49.81a4.18,4.18,0,0,0-2.15-.7c-.85,0-1.4.45-1.4,1v0c0,.69.9,1,1.87,1.25,1.12.33,2.32.77,2.32,2.07v0C506.76,87.45,505.63,88.25,504.18,88.25Z" fill="#231f20"/><path d="M515.36,88.25a5,5,0,0,1-3-1.07l.54-.77a4.26,4.26,0,0,0,2.51.93c.87,0,1.5-.45,1.5-1.15v0c0-.73-.85-1-1.81-1.27-1.13-.33-2.39-.72-2.39-2v0a2.19,2.19,0,0,1,2.46-2.07,4.94,4.94,0,0,1,2.61.8l-.49.81a4.12,4.12,0,0,0-2.14-.7c-.86,0-1.4.45-1.4,1v0c0,.69.89,1,1.86,1.25s2.32.77,2.32,2.07v0C517.93,87.45,516.8,88.25,515.36,88.25Z" fill="#231f20"/><path d="M521,88.11h-1.08V77.88H521v4.25a2.74,2.74,0,0,1,2.48-1.42,2.64,2.64,0,0,1,2.77,2.9v4.5h-1.08V83.88a1.93,1.93,0,0,0-2-2.19A2.13,2.13,0,0,0,521,84Z" fill="#231f20"/><path d="M531.86,88.28a3.71,3.71,0,0,1-3.75-3.77,3.78,3.78,0,1,1,3.75,3.77Zm0-6.62a2.67,2.67,0,0,0-2.65,2.82,2.72,2.72,0,0,0,2.68,2.83,2.67,2.67,0,0,0,2.66-2.8A2.74,2.74,0,0,0,531.86,81.66Z" fill="#231f20"/><path d="M541.45,88.26a3.27,3.27,0,0,1-2.77-1.54v3.63H537.6V80.87h1.08v1.45a3.25,3.25,0,0,1,2.77-1.61,3.79,3.79,0,0,1,0,7.55Zm-.19-6.58a2.82,2.82,0,0,0,0,5.62,2.57,2.57,0,0,0,2.55-2.81A2.61,2.61,0,0,0,541.26,81.68Z" fill="#231f20"/><path d="M550.93,81a1.86,1.86,0,0,0-2-1.84,3.25,3.25,0,0,0-2.54,1.32l-.72-.69a4,4,0,0,1,3.29-1.62A2.84,2.84,0,0,1,552.05,81c0,1.77-1.32,2.64-2.91,2.86L549,85.33h-.72l-.21-2.26.07-.07C550,83,550.93,82.2,550.93,81ZM548,88.11V86.64h1.29v1.47Z" fill="#231f20"/><path d="M356.45,140.14h.91l2.69,8.2,2.8-8.17H364l-3.51,9.88h-.93l-2.69-8-2.71,8h-.92l-3.5-9.88H351l2.8,8.17Z" fill="#231f20"/><path d="M366.91,150h-1.08V139.75h1.08V144a2.74,2.74,0,0,1,2.48-1.41,2.64,2.64,0,0,1,2.77,2.9V150h-1.08v-4.23a1.93,1.93,0,0,0-2-2.19,2.13,2.13,0,0,0-2.17,2.27Z" fill="#231f20"/><path d="M374.87,144.12l-.32-.88a5.89,5.89,0,0,1,2.63-.6c2,0,3.09,1,3.09,2.91V150h-1v-1.1a3.16,3.16,0,0,1-2.62,1.25,2.43,2.43,0,0,1-2.7-2.27c0-1.54,1.26-2.35,3.09-2.35a7.39,7.39,0,0,1,2.23.31v-.26c0-1.3-.8-2-2.16-2A5.06,5.06,0,0,0,374.87,144.12Zm.13,3.7c0,.92.84,1.46,1.82,1.46a2.19,2.19,0,0,0,2.42-2v-.7a7.69,7.69,0,0,0-2.13-.3C375.76,146.31,375,146.89,375,147.82Z" fill="#231f20"/><path d="M384,147.92a1.07,1.07,0,0,0,1.22,1.2,2.31,2.31,0,0,0,1.05-.25v.92a2.7,2.7,0,0,1-1.31.31,1.84,1.84,0,0,1-2-2v-4.37h-1v-1h1v-2.18H384v2.18h2.29v1H384Z" fill="#231f20"/><path d="M393.8,147.92a1.07,1.07,0,0,0,1.22,1.2,2.31,2.31,0,0,0,1.05-.25v.92a2.66,2.66,0,0,1-1.3.31,1.84,1.84,0,0,1-2-2v-4.37h-1v-1h1v-2.18h1.08v2.18h2.3v1h-2.3Z" fill="#231f20"/><path d="M398,141.15V140h1.23v1.19Zm.07,8.83v-7.25h1.08V150Z" fill="#231f20"/><path d="M410,142.58a2.61,2.61,0,0,1,2.69,2.91V150h-1.08v-4.23c0-1.41-.7-2.19-1.88-2.19a2,2,0,0,0-2,2.24V150h-1.07v-4.26c0-1.36-.71-2.16-1.86-2.16a2.1,2.1,0,0,0-2,2.28V150h-1.08v-7.25h1.08V144a2.66,2.66,0,0,1,2.34-1.37,2.47,2.47,0,0,1,2.33,1.44A2.86,2.86,0,0,1,410,142.58Z" fill="#231f20"/><path d="M418.19,149.21a3,3,0,0,0,2.28-1l.68.61a3.76,3.76,0,0,1-3,1.35,3.79,3.79,0,0,1-.14-7.56c2.15,0,3.38,1.71,3.38,3.84a1.94,1.94,0,0,1,0,.33h-5.74A2.55,2.55,0,0,0,418.19,149.21Zm2.12-3.25a2.39,2.39,0,0,0-2.32-2.47,2.49,2.49,0,0,0-2.35,2.47Z" fill="#231f20"/><path d="M433.3,150v-1.46a3.27,3.27,0,0,1-2.78,1.61,3.79,3.79,0,0,1,0-7.55,3.28,3.28,0,0,1,2.78,1.54v-4.37h1.08V150Zm-2.58-6.43a2.56,2.56,0,0,0-2.55,2.8,2.61,2.61,0,0,0,2.55,2.81,2.81,2.81,0,0,0,0-5.61Z" fill="#231f20"/><path d="M440.09,150.14a3.72,3.72,0,0,1-3.76-3.76,3.78,3.78,0,1,1,3.76,3.76Zm0-6.61a2.67,2.67,0,0,0-2.65,2.82,2.72,2.72,0,0,0,2.67,2.83,2.67,2.67,0,0,0,2.66-2.8A2.73,2.73,0,0,0,440.09,143.53Z" fill="#231f20"/><path d="M453.29,150.14a3.78,3.78,0,1,1,2.9-6.27l-.72.75a2.92,2.92,0,0,0-2.2-1.09,2.68,2.68,0,0,0-2.59,2.82,2.71,2.71,0,0,0,2.66,2.83,3,3,0,0,0,2.22-1.08l.68.64A3.7,3.7,0,0,1,453.29,150.14Z" fill="#231f20"/><path d="M463.16,142.73h1.06V150h-1.06v-1.27a2.75,2.75,0,0,1-2.48,1.42,2.64,2.64,0,0,1-2.77-2.9v-4.5H459V147a1.93,1.93,0,0,0,2,2.19,2.14,2.14,0,0,0,2.17-2.27Z" fill="#231f20"/><path d="M469,150.12a5,5,0,0,1-3-1.07l.55-.77a4.21,4.21,0,0,0,2.5.93c.87,0,1.5-.45,1.5-1.15v0c0-.73-.85-1-1.81-1.28-1.13-.32-2.39-.71-2.39-2v0a2.19,2.19,0,0,1,2.46-2.07,4.94,4.94,0,0,1,2.61.8l-.49.81a4,4,0,0,0-2.14-.7c-.86,0-1.4.45-1.4,1v0c0,.68.89,1,1.86,1.24s2.32.77,2.32,2.08v0C471.61,149.32,470.48,150.12,469,150.12Z" fill="#231f20"/><path d="M474.93,147.92a1.07,1.07,0,0,0,1.22,1.2,2.31,2.31,0,0,0,1.05-.25v.92a2.66,2.66,0,0,1-1.3.31,1.84,1.84,0,0,1-2-2v-4.37h-1v-1h1v-2.18h1.08v2.18h2.3v1h-2.3Z" fill="#231f20"/><path d="M482.23,150.14a3.71,3.71,0,0,1-3.76-3.76,3.78,3.78,0,1,1,3.76,3.76Zm0-6.61a2.67,2.67,0,0,0-2.65,2.82,2.72,2.72,0,0,0,2.67,2.83,2.68,2.68,0,0,0,2.67-2.8A2.74,2.74,0,0,0,482.23,143.53Z" fill="#231f20"/><path d="M496.26,142.58a2.61,2.61,0,0,1,2.69,2.91V150h-1.08v-4.23c0-1.41-.7-2.19-1.88-2.19a2,2,0,0,0-2,2.24V150h-1.07v-4.26c0-1.36-.71-2.16-1.86-2.16a2.1,2.1,0,0,0-2,2.28V150H488v-7.25H489V144a2.66,2.66,0,0,1,2.34-1.37,2.47,2.47,0,0,1,2.33,1.44A2.87,2.87,0,0,1,496.26,142.58Z" fill="#231f20"/><path d="M504.47,149.21a3,3,0,0,0,2.29-1l.67.61a3.74,3.74,0,0,1-3,1.35,3.79,3.79,0,0,1-.14-7.56c2.15,0,3.38,1.71,3.38,3.84,0,.1,0,.21,0,.33h-5.75A2.55,2.55,0,0,0,504.47,149.21Zm2.12-3.25a2.39,2.39,0,0,0-2.32-2.47,2.49,2.49,0,0,0-2.35,2.47Z" fill="#231f20"/><path d="M510.64,150h-1.07v-7.25h1.07v1.89a3.11,3.11,0,0,1,3-2v1.16h-.09c-1.58,0-2.87,1.13-2.87,3.32Z" fill="#231f20"/><path d="M517.63,150.12a5,5,0,0,1-3-1.07l.55-.77a4.21,4.21,0,0,0,2.51.93c.86,0,1.49-.45,1.49-1.15v0c0-.73-.85-1-1.8-1.28-1.14-.32-2.4-.71-2.4-2v0a2.19,2.19,0,0,1,2.47-2.07,4.94,4.94,0,0,1,2.6.8l-.49.81a4,4,0,0,0-2.14-.7c-.85,0-1.4.45-1.4,1v0c0,.68.9,1,1.86,1.24,1.12.34,2.33.77,2.33,2.08v0C520.21,149.32,519.07,150.12,517.63,150.12Z" fill="#231f20"/><path d="M528.8,150.12a5,5,0,0,1-3-1.07l.55-.77a4.24,4.24,0,0,0,2.51.93c.87,0,1.5-.45,1.5-1.15v0c0-.73-.86-1-1.81-1.28-1.13-.32-2.39-.71-2.39-2v0a2.18,2.18,0,0,1,2.46-2.07,5,5,0,0,1,2.61.8l-.49.81a4.09,4.09,0,0,0-2.15-.7c-.85,0-1.4.45-1.4,1v0c0,.68.9,1,1.86,1.24,1.12.34,2.33.77,2.33,2.08v0C531.38,149.32,530.25,150.12,528.8,150.12Z" fill="#231f20"/><path d="M534.46,150h-1.08V139.75h1.08V144a2.74,2.74,0,0,1,2.48-1.41,2.64,2.64,0,0,1,2.77,2.9V150h-1.08v-4.23a1.93,1.93,0,0,0-2-2.19,2.13,2.13,0,0,0-2.17,2.27Z" fill="#231f20"/><path d="M545.31,150.14a3.72,3.72,0,0,1-3.76-3.76,3.76,3.76,0,0,1,3.79-3.8,3.78,3.78,0,0,1,0,7.56Zm0-6.61a2.67,2.67,0,0,0-2.65,2.82,2.72,2.72,0,0,0,2.68,2.83,2.67,2.67,0,0,0,2.66-2.8A2.74,2.74,0,0,0,545.31,143.53Z" fill="#231f20"/><path d="M554.9,150.13a3.26,3.26,0,0,1-2.77-1.54v3.63h-1.08v-9.49h1.08v1.46a3.24,3.24,0,0,1,2.77-1.61,3.79,3.79,0,0,1,0,7.55Zm-.2-6.58a2.81,2.81,0,0,0,0,5.61,2.56,2.56,0,0,0,2.55-2.8A2.61,2.61,0,0,0,554.7,143.55Z" fill="#231f20"/><path d="M564.38,142.87a1.87,1.87,0,0,0-2-1.83,3.29,3.29,0,0,0-2.55,1.32l-.71-.69a4,4,0,0,1,3.29-1.63,2.85,2.85,0,0,1,3.14,2.79c0,1.77-1.32,2.64-2.92,2.86l-.14,1.51h-.71l-.21-2.27.07-.07C563.41,144.82,564.38,144.06,564.38,142.87ZM561.44,150V148.5h1.28V150Z" fill="#231f20"/><path d="M377.72,202h.91l2.69,8.2,2.8-8.17h1.16l-3.5,9.87h-.94L378.15,204l-2.7,7.95h-.93L371,202h1.21l2.8,8.17Z" fill="#231f20"/><path d="M388.17,211.84h-1.08V201.62h1.08v4.24a2.76,2.76,0,0,1,2.48-1.41,2.65,2.65,0,0,1,2.78,2.9v4.49h-1.08v-4.23a1.93,1.93,0,0,0-2-2.18,2.13,2.13,0,0,0-2.17,2.27Z" fill="#231f20"/><path d="M396.14,206l-.32-.88a5.89,5.89,0,0,1,2.63-.61c2,0,3.08,1,3.08,2.92v4.42h-1v-1.09a3.19,3.19,0,0,1-2.62,1.25,2.44,2.44,0,0,1-2.71-2.27c0-1.54,1.26-2.35,3.1-2.35a7.86,7.86,0,0,1,2.23.3v-.25c0-1.3-.8-2-2.16-2A5,5,0,0,0,396.14,206Zm.12,3.7c0,.92.85,1.45,1.83,1.45a2.19,2.19,0,0,0,2.42-2v-.7a7.71,7.71,0,0,0-2.13-.31C397,208.17,396.26,208.76,396.26,209.69Z" fill="#231f20"/><path d="M405.21,209.79a1.07,1.07,0,0,0,1.22,1.2,2.31,2.31,0,0,0,1.05-.25v.92a2.66,2.66,0,0,1-1.3.31,1.84,1.84,0,0,1-2.05-2.05v-4.37h-1v-1h1v-2.18h1.08v2.18h2.3v1h-2.3Z" fill="#231f20"/><path d="M419.42,211.84v-1.45a3.24,3.24,0,0,1-2.77,1.61,3.79,3.79,0,0,1,0-7.55,3.26,3.26,0,0,1,2.77,1.54v-4.37h1.08v10.22Zm-2.57-6.43a2.57,2.57,0,0,0-2.55,2.81,2.61,2.61,0,0,0,2.55,2.81,2.82,2.82,0,0,0,0-5.62Z" fill="#231f20"/><path d="M426.21,212a3.78,3.78,0,1,1,3.8-3.79A3.76,3.76,0,0,1,426.21,212Zm0-6.61a2.67,2.67,0,0,0-2.65,2.82,2.72,2.72,0,0,0,2.68,2.83,2.67,2.67,0,0,0,2.66-2.81A2.73,2.73,0,0,0,426.21,205.4Z" fill="#231f20"/><path d="M439.41,212a3.78,3.78,0,1,1,2.9-6.27l-.71.75a2.94,2.94,0,0,0-2.2-1.09,2.68,2.68,0,0,0-2.59,2.82,2.71,2.71,0,0,0,2.66,2.83,3,3,0,0,0,2.21-1.08l.69.64A3.75,3.75,0,0,1,439.41,212Z" fill="#231f20"/><path d="M449.28,204.6h1.07v7.24h-1.07v-1.26a2.74,2.74,0,0,1-2.47,1.42,2.65,2.65,0,0,1-2.78-2.9v-4.5h1.08v4.23a1.93,1.93,0,0,0,2,2.19,2.13,2.13,0,0,0,2.17-2.27Z" fill="#231f20"/><path d="M455.16,212a5,5,0,0,1-3-1.06l.54-.77a4.25,4.25,0,0,0,2.51.92c.87,0,1.5-.44,1.5-1.15v0c0-.73-.86-1-1.81-1.28-1.13-.32-2.39-.71-2.39-2v0a2.18,2.18,0,0,1,2.46-2.07,5,5,0,0,1,2.61.79l-.49.82a4.09,4.09,0,0,0-2.15-.7c-.85,0-1.4.44-1.4,1.05v0c0,.69.9,1,1.87,1.25s2.32.77,2.32,2.08v0C457.74,211.19,456.61,212,455.16,212Z" fill="#231f20"/><path d="M461.06,209.79a1.07,1.07,0,0,0,1.21,1.2,2.32,2.32,0,0,0,1.06-.25v.92A2.7,2.7,0,0,1,462,212a1.84,1.84,0,0,1-2-2.05v-4.37h-1v-1h1v-2.18h1.08v2.18h2.29v1h-2.29Z" fill="#231f20"/><path d="M468.35,212a3.78,3.78,0,1,1,3.8-3.79A3.76,3.76,0,0,1,468.35,212Zm0-6.61a2.67,2.67,0,0,0-2.65,2.82,2.72,2.72,0,0,0,2.68,2.83,2.67,2.67,0,0,0,2.66-2.81A2.73,2.73,0,0,0,468.35,205.4Z" fill="#231f20"/><path d="M482.38,204.45a2.6,2.6,0,0,1,2.69,2.91v4.48H484v-4.23c0-1.4-.7-2.18-1.87-2.18a2,2,0,0,0-2,2.24v4.17h-1.06v-4.25c0-1.36-.72-2.16-1.87-2.16a2.1,2.1,0,0,0-2,2.28v4.13h-1.08V204.6h1.08v1.22a2.64,2.64,0,0,1,2.34-1.37,2.46,2.46,0,0,1,2.32,1.44A2.88,2.88,0,0,1,482.38,204.45Z" fill="#231f20"/><path d="M490.6,211.07a3,3,0,0,0,2.28-1l.67.6a3.72,3.72,0,0,1-3,1.36,3.79,3.79,0,0,1-.14-7.56c2.14,0,3.37,1.71,3.37,3.84,0,.09,0,.21,0,.33h-5.74A2.53,2.53,0,0,0,490.6,211.07Zm2.11-3.25a2.38,2.38,0,0,0-2.31-2.46,2.49,2.49,0,0,0-2.35,2.46Z" fill="#231f20"/><path d="M496.77,211.84h-1.08V204.6h1.08v1.89a3.09,3.09,0,0,1,3-2v1.16h-.09c-1.58,0-2.87,1.13-2.87,3.32Z" fill="#231f20"/><path d="M503.76,212a5,5,0,0,1-3-1.06l.55-.77a4.2,4.2,0,0,0,2.5.92c.87,0,1.5-.44,1.5-1.15v0c0-.73-.85-1-1.8-1.28-1.14-.32-2.4-.71-2.4-2v0a2.19,2.19,0,0,1,2.47-2.07,4.93,4.93,0,0,1,2.6.79l-.49.82a4,4,0,0,0-2.14-.7c-.86,0-1.4.44-1.4,1.05v0c0,.69.89,1,1.86,1.25,1.12.34,2.32.77,2.32,2.08v0C506.33,211.19,505.2,212,503.76,212Z" fill="#231f20"/><path d="M516.39,212a3.28,3.28,0,0,1-2.78-1.54v1.38h-1.08V201.62h1.08v4.44a3.25,3.25,0,0,1,2.78-1.61,3.79,3.79,0,0,1,0,7.55Zm-.2-6.59a2.82,2.82,0,0,0,0,5.62,2.56,2.56,0,0,0,2.55-2.8A2.62,2.62,0,0,0,516.19,205.41Z" fill="#231f20"/><path d="M527,204.6H528v7.24H527v-1.26a2.75,2.75,0,0,1-2.48,1.42,2.64,2.64,0,0,1-2.77-2.9v-4.5h1.08v4.23a1.93,1.93,0,0,0,2,2.19,2.14,2.14,0,0,0,2.17-2.27Z" fill="#231f20"/><path d="M534,212.08c-.61,1.5-1.31,2-2.41,2a3.27,3.27,0,0,1-1.54-.37l.37-.85a2.27,2.27,0,0,0,1.13.26c.65,0,1.05-.33,1.49-1.35l-3.3-7.22h1.2l2.63,6,2.32-6H537Z" fill="#231f20"/><path d="M543.11,204.74a1.86,1.86,0,0,0-2-1.83,3.28,3.28,0,0,0-2.55,1.31l-.72-.68a4,4,0,0,1,3.29-1.63,2.84,2.84,0,0,1,3.14,2.79c0,1.76-1.31,2.63-2.91,2.86l-.14,1.51h-.72l-.21-2.27.07-.07C542.14,206.69,543.11,205.93,543.11,204.74Zm-2.94,7.1v-1.47h1.29v1.47Z" fill="#231f20"/><path d="M381.27,317.25h.91l2.69,8.19,2.81-8.16h1.16l-3.5,9.87h-.94l-2.69-8-2.7,8h-.93l-3.5-9.87h1.2l2.81,8.16Z" fill="#231f20"/><path d="M391.73,327.08h-1.08V316.85h1.08v4.25a2.74,2.74,0,0,1,2.48-1.42,2.64,2.64,0,0,1,2.77,2.9v4.5H395.9v-4.23a1.92,1.92,0,0,0-2-2.18,2.13,2.13,0,0,0-2.17,2.26Z" fill="#231f20"/><path d="M399.7,321.23l-.33-.89a6.08,6.08,0,0,1,2.64-.6c2,0,3.08,1,3.08,2.91v4.43h-1V326a3.15,3.15,0,0,1-2.62,1.24,2.43,2.43,0,0,1-2.7-2.27c0-1.54,1.26-2.35,3.09-2.35a7.73,7.73,0,0,1,2.23.31v-.25c0-1.3-.8-2-2.16-2A5,5,0,0,0,399.7,321.23Zm.12,3.69c0,.93.84,1.46,1.82,1.46a2.19,2.19,0,0,0,2.43-2v-.7a7.4,7.4,0,0,0-2.13-.31C400.58,323.41,399.82,324,399.82,324.92Z" fill="#231f20"/><path d="M408.77,325a1.08,1.08,0,0,0,1.22,1.21A2.2,2.2,0,0,0,411,326v.93a2.82,2.82,0,0,1-1.31.31,1.85,1.85,0,0,1-2-2v-4.37h-1v-1h1v-2.19h1.08v2.19h2.29v1h-2.29Z" fill="#231f20"/><path d="M417.59,321.23l-.33-.89a6.08,6.08,0,0,1,2.64-.6c2,0,3.08,1,3.08,2.91v4.43h-1V326a3.15,3.15,0,0,1-2.62,1.24,2.43,2.43,0,0,1-2.7-2.27c0-1.54,1.26-2.35,3.1-2.35a7.7,7.7,0,0,1,2.22.31v-.25c0-1.3-.8-2-2.15-2A5,5,0,0,0,417.59,321.23Zm.12,3.69c0,.93.84,1.46,1.82,1.46a2.19,2.19,0,0,0,2.43-2v-.7a7.4,7.4,0,0,0-2.13-.31C418.47,323.41,417.71,324,417.71,324.92Z" fill="#231f20"/><path d="M431.09,327.08v-1.46a3.27,3.27,0,0,1-2.78,1.61,3.79,3.79,0,0,1,0-7.55,3.26,3.26,0,0,1,2.78,1.55v-4.38h1.07v10.23Zm-2.58-6.43a2.56,2.56,0,0,0-2.55,2.8,2.61,2.61,0,0,0,2.55,2.82,2.82,2.82,0,0,0,0-5.62Z" fill="#231f20"/><path d="M437,327.22a5,5,0,0,1-3-1.06l.54-.77a4.31,4.31,0,0,0,2.51.92c.87,0,1.5-.45,1.5-1.15v0c0-.72-.86-1-1.81-1.27-1.13-.32-2.39-.72-2.39-2.05v0a2.19,2.19,0,0,1,2.46-2.08,5,5,0,0,1,2.61.8l-.49.81a4.18,4.18,0,0,0-2.15-.7c-.85,0-1.4.45-1.4,1.05v0c0,.69.9.95,1.87,1.25s2.32.77,2.32,2.07v0C439.54,326.42,438.41,327.22,437,327.22Z" fill="#231f20"/><path d="M446.16,321.23l-.32-.89a6,6,0,0,1,2.63-.6c2,0,3.08,1,3.08,2.91v4.43h-1V326a3.18,3.18,0,0,1-2.62,1.24c-1.35,0-2.71-.75-2.71-2.27s1.26-2.35,3.1-2.35a7.83,7.83,0,0,1,2.23.31v-.25c0-1.3-.8-2-2.16-2A5,5,0,0,0,446.16,321.23Zm.13,3.69c0,.93.84,1.46,1.82,1.46a2.19,2.19,0,0,0,2.42-2v-.7a7.34,7.34,0,0,0-2.13-.31C447,323.41,446.29,324,446.29,324.92Z" fill="#231f20"/><path d="M454.92,327.08h-1.07v-7.24h1.07v1.26a2.75,2.75,0,0,1,2.48-1.42,2.65,2.65,0,0,1,2.78,2.9v4.5H459.1v-4.23a1.92,1.92,0,0,0-2-2.18,2.13,2.13,0,0,0-2.18,2.26Z" fill="#231f20"/><path d="M468.28,327.08v-1.46a3.25,3.25,0,0,1-2.77,1.61,3.79,3.79,0,0,1,0-7.55,3.26,3.26,0,0,1,2.77,1.55v-4.38h1.08v10.23Zm-2.57-6.43a2.56,2.56,0,0,0-2.55,2.8,2.61,2.61,0,0,0,2.55,2.82,2.82,2.82,0,0,0,0-5.62Z" fill="#231f20"/><path d="M479.16,326.31a3,3,0,0,0,2.28-1l.67.6a3.73,3.73,0,0,1-3,1.36,3.79,3.79,0,0,1-.14-7.57c2.14,0,3.38,1.71,3.38,3.84a2.12,2.12,0,0,1,0,.34h-5.74A2.53,2.53,0,0,0,479.16,326.31Zm2.11-3.25a2.38,2.38,0,0,0-2.31-2.47,2.5,2.5,0,0,0-2.35,2.47Z" fill="#231f20"/><path d="M492.55,319.68a2.61,2.61,0,0,1,2.69,2.92v4.48h-1.08v-4.23c0-1.4-.7-2.18-1.88-2.18a2,2,0,0,0-2,2.24v4.17h-1.07v-4.26c0-1.36-.71-2.15-1.86-2.15a2.1,2.1,0,0,0-2,2.28v4.13h-1.08v-7.24h1.08v1.22a2.64,2.64,0,0,1,2.34-1.38,2.47,2.47,0,0,1,2.33,1.45A2.88,2.88,0,0,1,492.55,319.68Z" fill="#231f20"/><path d="M498,321.23l-.32-.89a6,6,0,0,1,2.63-.6c2,0,3.08,1,3.08,2.91v4.43h-1V326a3.15,3.15,0,0,1-2.62,1.24A2.43,2.43,0,0,1,497,325c0-1.54,1.26-2.35,3.1-2.35a7.7,7.7,0,0,1,2.22.31v-.25c0-1.3-.79-2-2.15-2A5,5,0,0,0,498,321.23Zm.12,3.69c0,.93.84,1.46,1.82,1.46a2.19,2.19,0,0,0,2.43-2v-.7a7.34,7.34,0,0,0-2.13-.31C498.87,323.41,498.11,324,498.11,324.92Z" fill="#231f20"/><path d="M505.7,318.26v-1.2h1.23v1.2Zm.07,8.82v-7.24h1.08v7.24Z" fill="#231f20"/><path d="M509.45,327.08V316.85h1.08v10.23Z" fill="#231f20"/><path d="M515.43,327.22a5.07,5.07,0,0,1-3-1.06l.55-.77a4.27,4.27,0,0,0,2.51.92c.87,0,1.5-.45,1.5-1.15v0c0-.72-.86-1-1.81-1.27-1.13-.32-2.4-.72-2.4-2.05v0a2.2,2.2,0,0,1,2.47-2.08,5,5,0,0,1,2.61.8l-.49.81a4.18,4.18,0,0,0-2.15-.7c-.85,0-1.4.45-1.4,1.05v0c0,.69.9.95,1.86,1.25,1.12.33,2.33.77,2.33,2.07v0C518,326.42,516.87,327.22,515.43,327.22Z" fill="#231f20"/><path d="M530,327.08v-1.46a3.25,3.25,0,0,1-2.77,1.61,3.79,3.79,0,0,1,0-7.55,3.26,3.26,0,0,1,2.77,1.55v-4.38h1.08v10.23Zm-2.58-6.43a2.56,2.56,0,0,0-2.54,2.8,2.61,2.61,0,0,0,2.54,2.82,2.82,2.82,0,0,0,0-5.62Z" fill="#231f20"/><path d="M536.81,327.25a3.71,3.71,0,0,1-3.75-3.77,3.78,3.78,0,1,1,3.75,3.77Zm0-6.61a2.66,2.66,0,0,0-2.65,2.81,2.72,2.72,0,0,0,2.68,2.83,2.66,2.66,0,0,0,2.66-2.8A2.73,2.73,0,0,0,536.81,320.64Z" fill="#231f20"/><path d="M393.78,344.25a3.79,3.79,0,1,1,2.9-6.28l-.71.76a2.94,2.94,0,0,0-2.2-1.09,2.67,2.67,0,0,0-2.59,2.81,2.71,2.71,0,0,0,2.66,2.83,3,3,0,0,0,2.21-1.08l.69.65A3.75,3.75,0,0,1,393.78,344.25Z" fill="#231f20"/><path d="M403.65,336.84h1.07v7.24h-1.07v-1.26a2.76,2.76,0,0,1-2.48,1.41,2.64,2.64,0,0,1-2.77-2.89v-4.5h1.08v4.23a1.93,1.93,0,0,0,2,2.18,2.14,2.14,0,0,0,2.17-2.27Z" fill="#231f20"/><path d="M409.53,344.22a5.07,5.07,0,0,1-3-1.06l.55-.77a4.27,4.27,0,0,0,2.51.92c.87,0,1.5-.45,1.5-1.15v0c0-.72-.86-1-1.81-1.27-1.14-.32-2.4-.72-2.4-2.05v0a2.2,2.2,0,0,1,2.47-2.08,4.94,4.94,0,0,1,2.6.8l-.49.81a4.12,4.12,0,0,0-2.14-.7c-.85,0-1.4.45-1.4,1.05v0c0,.69.9.95,1.86,1.25,1.12.33,2.33.77,2.33,2.07v0C412.11,343.42,411,344.22,409.53,344.22Z" fill="#231f20"/><path d="M415.42,342a1.08,1.08,0,0,0,1.22,1.21,2.15,2.15,0,0,0,1.05-.26v.93a2.74,2.74,0,0,1-1.3.31,1.85,1.85,0,0,1-2-2v-4.37h-1v-1h1v-2.19h1.07v2.19h2.3v1h-2.3Z" fill="#231f20"/><path d="M422.72,344.25a3.72,3.72,0,0,1-3.76-3.77,3.76,3.76,0,0,1,3.79-3.8,3.72,3.72,0,0,1,3.76,3.77A3.76,3.76,0,0,1,422.72,344.25Zm0-6.61a2.66,2.66,0,0,0-2.65,2.81,2.72,2.72,0,0,0,2.68,2.83,2.66,2.66,0,0,0,2.66-2.8A2.73,2.73,0,0,0,422.72,337.64Z" fill="#231f20"/><path d="M436.75,336.68a2.6,2.6,0,0,1,2.69,2.92v4.48h-1.08v-4.23c0-1.4-.7-2.18-1.88-2.18a2,2,0,0,0-2,2.24v4.17h-1.06v-4.26c0-1.36-.72-2.15-1.87-2.15a2.09,2.09,0,0,0-2,2.28v4.13h-1.08v-7.24h1.08v1.22a2.63,2.63,0,0,1,2.34-1.38,2.45,2.45,0,0,1,2.32,1.45A2.89,2.89,0,0,1,436.75,336.68Z" fill="#231f20"/><path d="M445,343.31a3,3,0,0,0,2.29-1l.67.6a3.75,3.75,0,0,1-3,1.36,3.79,3.79,0,0,1-.14-7.57c2.14,0,3.37,1.71,3.37,3.84,0,.1,0,.21,0,.34h-5.74A2.53,2.53,0,0,0,445,343.31Zm2.12-3.25a2.39,2.39,0,0,0-2.31-2.47,2.5,2.5,0,0,0-2.35,2.47Z" fill="#231f20"/><path d="M451.14,344.08h-1.08v-7.24h1.08v1.89a3.1,3.1,0,0,1,2.95-2v1.17H454c-1.58,0-2.87,1.13-2.87,3.31Z" fill="#231f20"/><path d="M458.12,344.22a5,5,0,0,1-3-1.06l.54-.77a4.31,4.31,0,0,0,2.51.92c.87,0,1.5-.45,1.5-1.15v0c0-.72-.85-1-1.81-1.27-1.13-.32-2.39-.72-2.39-2.05v0a2.19,2.19,0,0,1,2.46-2.08,4.94,4.94,0,0,1,2.61.8l-.49.81a4.15,4.15,0,0,0-2.15-.7c-.85,0-1.4.45-1.4,1.05v0c0,.69.9.95,1.87,1.25,1.12.33,2.32.77,2.32,2.07v0C460.7,343.42,459.57,344.22,458.12,344.22Z" fill="#231f20"/><path d="M470.16,344.25a3.79,3.79,0,1,1,2.9-6.28l-.71.76a2.94,2.94,0,0,0-2.2-1.09,2.67,2.67,0,0,0-2.59,2.81,2.71,2.71,0,0,0,2.66,2.83,3,3,0,0,0,2.21-1.08l.69.65A3.75,3.75,0,0,1,470.16,344.25Z" fill="#231f20"/><path d="M475,344.08V333.85h1.08v10.23Z" fill="#231f20"/><path d="M478.6,335.26v-1.2h1.24v1.2Zm.07,8.82v-7.24h1.08v7.24Z" fill="#231f20"/><path d="M485.52,344.25a3.79,3.79,0,1,1,2.9-6.28l-.71.76a2.94,2.94,0,0,0-2.2-1.09,2.67,2.67,0,0,0-2.59,2.81,2.71,2.71,0,0,0,2.66,2.83,3,3,0,0,0,2.21-1.08l.69.65A3.75,3.75,0,0,1,485.52,344.25Z" fill="#231f20"/><path d="M496.68,344.08h-1.29l-2.59-3.38-1.47,1.49v1.89h-1.08V333.85h1.08v7.07l3.91-4.08h1.34l-3,3.11Z" fill="#231f20"/><path d="M505.72,344.25a3.71,3.71,0,0,1-3.75-3.77,3.78,3.78,0,1,1,3.75,3.77Zm0-6.61a2.65,2.65,0,0,0-2.64,2.81,2.72,2.72,0,0,0,2.67,2.83,2.66,2.66,0,0,0,2.66-2.8A2.73,2.73,0,0,0,505.72,337.64Z" fill="#231f20"/><path d="M512.54,344.08h-1.08v-7.24h1.08v1.26a2.74,2.74,0,0,1,2.48-1.42,2.64,2.64,0,0,1,2.77,2.9v4.5h-1.08v-4.23a1.92,1.92,0,0,0-2-2.18,2.13,2.13,0,0,0-2.17,2.26Z" fill="#231f20"/><path d="M524.19,337a1.87,1.87,0,0,0-2-1.84,3.26,3.26,0,0,0-2.55,1.32l-.72-.69a4,4,0,0,1,3.29-1.62,2.85,2.85,0,0,1,3.14,2.79c0,1.76-1.32,2.63-2.91,2.85l-.14,1.52h-.72l-.21-2.27.07-.07C523.22,338.93,524.19,338.17,524.19,337Zm-2.94,7.1v-1.47h1.29v1.47Z" fill="#231f20"/><path d="M392.68,379.11h.91l2.69,8.2,2.8-8.17h1.16l-3.5,9.88h-.94l-2.69-8-2.7,8h-.93l-3.5-9.88h1.21l2.8,8.17Z" fill="#231f20"/><path d="M403.13,389h-1.08V378.72h1.08V383a2.74,2.74,0,0,1,2.48-1.42,2.64,2.64,0,0,1,2.77,2.9V389h-1.07v-4.23a1.93,1.93,0,0,0-2-2.19,2.13,2.13,0,0,0-2.17,2.27Z" fill="#231f20"/><path d="M411.1,383.09l-.32-.88a6,6,0,0,1,2.63-.6c2,0,3.08,1,3.08,2.91V389h-1v-1.1a3.15,3.15,0,0,1-2.61,1.25,2.44,2.44,0,0,1-2.71-2.27c0-1.54,1.26-2.35,3.1-2.35a7.7,7.7,0,0,1,2.22.31v-.25c0-1.31-.79-2-2.15-2A5,5,0,0,0,411.1,383.09Zm.12,3.7c0,.92.84,1.46,1.82,1.46a2.2,2.2,0,0,0,2.43-2v-.7a7.34,7.34,0,0,0-2.13-.31C412,385.28,411.22,385.87,411.22,386.79Z" fill="#231f20"/><path d="M420.17,386.89a1.07,1.07,0,0,0,1.22,1.2,2.31,2.31,0,0,0,1.05-.25v.93a2.77,2.77,0,0,1-1.3.3,1.84,1.84,0,0,1-2.05-2v-4.37h-1v-1h1v-2.19h1.08v2.19h2.3v1h-2.3Z" fill="#231f20"/><path d="M432.42,389.1a3.27,3.27,0,0,1-2.77-1.54v3.63h-1.08v-9.48h1.08v1.45a3.25,3.25,0,0,1,2.77-1.61,3.79,3.79,0,0,1,0,7.55Zm-.19-6.58a2.81,2.81,0,0,0,0,5.61,2.55,2.55,0,0,0,2.54-2.8A2.6,2.6,0,0,0,432.23,382.52Z" fill="#231f20"/><path d="M438.94,389h-1.08v-7.24h1.08v1.89a3.11,3.11,0,0,1,3-2v1.16h-.08c-1.59,0-2.88,1.14-2.88,3.32Z" fill="#231f20"/><path d="M446.53,389.12a3.71,3.71,0,0,1-3.75-3.77,3.78,3.78,0,1,1,3.75,3.77Zm0-6.62a2.66,2.66,0,0,0-2.64,2.82,2.71,2.71,0,0,0,2.67,2.83,2.67,2.67,0,0,0,2.66-2.8A2.74,2.74,0,0,0,446.53,382.5Z" fill="#231f20"/><path d="M460.56,381.55a2.6,2.6,0,0,1,2.69,2.91V389h-1.08v-4.23c0-1.4-.7-2.19-1.87-2.19a2,2,0,0,0-2,2.24V389h-1.06v-4.26c0-1.36-.72-2.16-1.86-2.16a2.1,2.1,0,0,0-2,2.29V389h-1.08v-7.24h1.08v1.21a2.66,2.66,0,0,1,2.34-1.37A2.45,2.45,0,0,1,458,383,2.91,2.91,0,0,1,460.56,381.55Z" fill="#231f20"/><path d="M468.89,389.12a3.71,3.71,0,0,1-3.75-3.77,3.78,3.78,0,1,1,3.75,3.77Zm0-6.62a2.67,2.67,0,0,0-2.65,2.82,2.72,2.72,0,0,0,2.68,2.83,2.67,2.67,0,0,0,2.66-2.8A2.74,2.74,0,0,0,468.89,382.5Z" fill="#231f20"/><path d="M476.09,386.89a1.07,1.07,0,0,0,1.21,1.2,2.25,2.25,0,0,0,1.05-.25v.93a2.74,2.74,0,0,1-1.3.3,1.84,1.84,0,0,1-2-2v-4.37h-1v-1h1v-2.19h1.08v2.19h2.29v1h-2.29Z" fill="#231f20"/><path d="M480.31,380.12v-1.19h1.24v1.19Zm.07,8.83v-7.24h1.08V389Z" fill="#231f20"/><path d="M487.27,389.12a3.71,3.71,0,0,1-3.75-3.77,3.78,3.78,0,1,1,3.75,3.77Zm0-6.62a2.67,2.67,0,0,0-2.65,2.82,2.72,2.72,0,0,0,2.68,2.83,2.67,2.67,0,0,0,2.66-2.8A2.74,2.74,0,0,0,487.27,382.5Z" fill="#231f20"/><path d="M494.09,389H493v-7.24h1.08V383a2.74,2.74,0,0,1,2.48-1.42,2.64,2.64,0,0,1,2.77,2.9V389h-1.08v-4.23a1.93,1.93,0,0,0-2-2.19,2.13,2.13,0,0,0-2.17,2.27Z" fill="#231f20"/><path d="M504,389.09a5,5,0,0,1-3-1.07l.55-.77a4.21,4.21,0,0,0,2.51.93c.86,0,1.5-.45,1.5-1.15v0c0-.73-.86-1-1.81-1.27-1.14-.33-2.4-.72-2.4-2.05v0a2.2,2.2,0,0,1,2.47-2.07,4.94,4.94,0,0,1,2.6.8l-.49.81a4.12,4.12,0,0,0-2.14-.7c-.86,0-1.4.45-1.4,1.05v0c0,.68.9.95,1.86,1.25,1.12.33,2.33.77,2.33,2.07v0C506.61,388.29,505.47,389.09,504,389.09Z" fill="#231f20"/><path d="M518.62,389v-1.46a3.25,3.25,0,0,1-2.78,1.61,3.79,3.79,0,0,1,0-7.55,3.28,3.28,0,0,1,2.78,1.54v-4.37h1.08V389ZM516,382.52a2.56,2.56,0,0,0-2.55,2.8,2.61,2.61,0,0,0,2.55,2.81,2.81,2.81,0,0,0,0-5.61Z" fill="#231f20"/><path d="M525.41,389.12a3.79,3.79,0,1,1,3.79-3.8A3.76,3.76,0,0,1,525.41,389.12Zm0-6.62a2.67,2.67,0,0,0-2.65,2.82,2.72,2.72,0,0,0,2.67,2.83,2.68,2.68,0,0,0,2.67-2.8A2.74,2.74,0,0,0,525.41,382.5Z" fill="#231f20"/><path d="M375.32,406.12a3.79,3.79,0,1,1,2.9-6.28l-.72.76a2.9,2.9,0,0,0-2.2-1.1,2.68,2.68,0,0,0-2.59,2.82,2.71,2.71,0,0,0,2.66,2.83,3,3,0,0,0,2.22-1.08l.68.64A3.72,3.72,0,0,1,375.32,406.12Z" fill="#231f20"/><path d="M385.19,398.71h1.06V406h-1.06v-1.26a2.77,2.77,0,0,1-2.48,1.41,2.65,2.65,0,0,1-2.78-2.9v-4.49H381v4.23a1.93,1.93,0,0,0,2,2.18,2.14,2.14,0,0,0,2.17-2.27Z" fill="#231f20"/><path d="M391.07,406.09a5,5,0,0,1-3-1.07l.54-.77a4.26,4.26,0,0,0,2.51.93c.87,0,1.5-.45,1.5-1.15v0c0-.73-.85-1-1.81-1.27-1.13-.33-2.39-.72-2.39-2.05v0a2.19,2.19,0,0,1,2.46-2.07,4.94,4.94,0,0,1,2.61.8l-.49.81a4.12,4.12,0,0,0-2.15-.7c-.85,0-1.4.45-1.4,1.05v0c0,.68.9.95,1.87,1.25,1.12.33,2.32.77,2.32,2.07v0C393.64,405.29,392.51,406.09,391.07,406.09Z" fill="#231f20"/><path d="M397,403.89a1.07,1.07,0,0,0,1.22,1.2,2.31,2.31,0,0,0,1.05-.25v.93a2.81,2.81,0,0,1-1.31.3,1.84,1.84,0,0,1-2-2v-4.37h-1v-1h1v-2.19H397v2.19h2.3v1H397Z" fill="#231f20"/><path d="M404.25,406.12a3.71,3.71,0,0,1-3.75-3.77,3.78,3.78,0,1,1,3.75,3.77Zm0-6.62a2.66,2.66,0,0,0-2.64,2.82,2.72,2.72,0,0,0,2.67,2.83,2.67,2.67,0,0,0,2.66-2.8A2.74,2.74,0,0,0,404.25,399.5Z" fill="#231f20"/><path d="M418.28,398.55a2.6,2.6,0,0,1,2.69,2.91V406h-1.08v-4.23c0-1.4-.7-2.19-1.87-2.19a2,2,0,0,0-2,2.24V406H415v-4.26c0-1.36-.71-2.16-1.86-2.16a2.1,2.1,0,0,0-2,2.29V406H410v-7.24h1.08v1.21a2.66,2.66,0,0,1,2.34-1.37,2.45,2.45,0,0,1,2.32,1.44A2.91,2.91,0,0,1,418.28,398.55Z" fill="#231f20"/><path d="M426.5,405.18a3,3,0,0,0,2.28-1l.67.61a3.73,3.73,0,0,1-3,1.36,3.79,3.79,0,0,1-.14-7.57c2.14,0,3.38,1.71,3.38,3.84a2.12,2.12,0,0,1,0,.34H424A2.53,2.53,0,0,0,426.5,405.18Zm2.11-3.25a2.38,2.38,0,0,0-2.31-2.47,2.49,2.49,0,0,0-2.35,2.47Z" fill="#231f20"/><path d="M432.67,406h-1.08v-7.24h1.08v1.89a3.1,3.1,0,0,1,3-2v1.16h-.09c-1.58,0-2.87,1.14-2.87,3.32Z" fill="#231f20"/><path d="M439.66,406.09a5,5,0,0,1-3-1.07l.55-.77a4.21,4.21,0,0,0,2.5.93c.87,0,1.5-.45,1.5-1.15v0c0-.73-.85-1-1.8-1.27-1.14-.33-2.4-.72-2.4-2.05v0a2.2,2.2,0,0,1,2.47-2.07,4.94,4.94,0,0,1,2.6.8l-.49.81a4.12,4.12,0,0,0-2.14-.7c-.86,0-1.4.45-1.4,1.05v0c0,.68.89.95,1.86,1.25s2.33.77,2.33,2.07v0C442.24,405.29,441.1,406.09,439.66,406.09Z" fill="#231f20"/><path d="M453.58,398.71h1.06V406h-1.06v-1.26a2.77,2.77,0,0,1-2.48,1.41,2.65,2.65,0,0,1-2.78-2.9v-4.49h1.08v4.23a1.93,1.93,0,0,0,2,2.18,2.14,2.14,0,0,0,2.18-2.27Z" fill="#231f20"/><path d="M459.45,406.09a5,5,0,0,1-3-1.07l.54-.77a4.26,4.26,0,0,0,2.51.93c.87,0,1.5-.45,1.5-1.15v0c0-.73-.86-1-1.81-1.27-1.13-.33-2.39-.72-2.39-2.05v0a2.19,2.19,0,0,1,2.46-2.07,5,5,0,0,1,2.61.8l-.49.81a4.18,4.18,0,0,0-2.15-.7c-.85,0-1.4.45-1.4,1.05v0c0,.68.9.95,1.87,1.25,1.12.33,2.32.77,2.32,2.07v0C462,405.29,460.9,406.09,459.45,406.09Z" fill="#231f20"/><path d="M467.22,405.18a3,3,0,0,0,2.29-1l.67.61a3.75,3.75,0,0,1-3,1.36,3.61,3.61,0,0,1-3.62-3.79,3.58,3.58,0,0,1,3.48-3.78c2.14,0,3.37,1.71,3.37,3.84,0,.1,0,.21,0,.34h-5.75A2.54,2.54,0,0,0,467.22,405.18Zm2.12-3.25a2.39,2.39,0,0,0-2.31-2.47,2.51,2.51,0,0,0-2.36,2.47Z" fill="#231f20"/><path d="M478,403.89a1.07,1.07,0,0,0,1.21,1.2,2.25,2.25,0,0,0,1.05-.25v.93a2.74,2.74,0,0,1-1.3.3,1.84,1.84,0,0,1-2-2v-4.37h-1v-1h1v-2.19H478v2.19h2.29v1H478Z" fill="#231f20"/><path d="M483.25,406h-1.08V395.72h1.08V400a2.75,2.75,0,0,1,2.48-1.42,2.65,2.65,0,0,1,2.78,2.9V406h-1.08v-4.23a1.93,1.93,0,0,0-2-2.19,2.13,2.13,0,0,0-2.17,2.27Z" fill="#231f20"/><path d="M494,405.18a3,3,0,0,0,2.28-1l.68.61a3.75,3.75,0,0,1-3,1.36,3.79,3.79,0,0,1-.14-7.57c2.15,0,3.38,1.71,3.38,3.84,0,.1,0,.21,0,.34h-5.75A2.54,2.54,0,0,0,494,405.18Zm2.12-3.25a2.39,2.39,0,0,0-2.31-2.47,2.5,2.5,0,0,0-2.36,2.47Z" fill="#231f20"/><path d="M511.58,398.55a2.6,2.6,0,0,1,2.69,2.91V406h-1.08v-4.23c0-1.4-.7-2.19-1.88-2.19a2,2,0,0,0-2,2.24V406h-1.07v-4.26c0-1.36-.71-2.16-1.86-2.16a2.1,2.1,0,0,0-2,2.29V406h-1.07v-7.24h1.07v1.21a2.67,2.67,0,0,1,2.34-1.37A2.46,2.46,0,0,1,509,400,2.91,2.91,0,0,1,511.58,398.55Z" fill="#231f20"/><path d="M519.91,406.12a3.71,3.71,0,0,1-3.76-3.77,3.78,3.78,0,1,1,3.76,3.77Zm0-6.62a2.67,2.67,0,0,0-2.65,2.82,2.72,2.72,0,0,0,2.67,2.83,2.67,2.67,0,0,0,2.66-2.8A2.73,2.73,0,0,0,519.91,399.5Z" fill="#231f20"/><path d="M528,406.09a5,5,0,0,1-3-1.07l.55-.77a4.21,4.21,0,0,0,2.5.93c.87,0,1.5-.45,1.5-1.15v0c0-.73-.85-1-1.8-1.27-1.14-.33-2.4-.72-2.4-2.05v0a2.2,2.2,0,0,1,2.47-2.07,4.94,4.94,0,0,1,2.6.8l-.49.81a4.12,4.12,0,0,0-2.14-.7c-.86,0-1.4.45-1.4,1.05v0c0,.68.9.95,1.86,1.25,1.12.33,2.33.77,2.33,2.07v0C530.62,405.29,529.48,406.09,528,406.09Z" fill="#231f20"/><path d="M533.93,403.89a1.07,1.07,0,0,0,1.22,1.2,2.31,2.31,0,0,0,1.05-.25v.93a2.77,2.77,0,0,1-1.3.3,1.84,1.84,0,0,1-2-2v-4.37h-1v-1h1v-2.19h1.08v2.19h2.3v1h-2.3Z" fill="#231f20"/><path d="M542.66,398.85a1.87,1.87,0,0,0-2-1.84,3.27,3.27,0,0,0-2.55,1.32l-.71-.69a4,4,0,0,1,3.29-1.62,2.84,2.84,0,0,1,3.14,2.78c0,1.77-1.32,2.64-2.92,2.86l-.14,1.51H540l-.21-2.26.07-.07C541.69,400.79,542.66,400,542.66,398.85Zm-2.95,7.1v-1.47H541V406Z" fill="#231f20"/><path d="M348.75,263.88h.91l2.69,8.19,2.8-8.16h1.17l-3.5,9.87h-.94l-2.69-7.95-2.71,7.95h-.92l-3.5-9.87h1.2l2.8,8.16Z" fill="#231f20"/><path d="M359.21,273.71h-1.08V263.49h1.08v4.24a2.74,2.74,0,0,1,2.48-1.41,2.64,2.64,0,0,1,2.77,2.89v4.5h-1.08v-4.23a1.93,1.93,0,0,0-2-2.18,2.13,2.13,0,0,0-2.17,2.27Z" fill="#231f20"/><path d="M367.17,267.86l-.32-.89a6,6,0,0,1,2.64-.6c2,0,3.08,1,3.08,2.92v4.42h-1v-1.09a3.16,3.16,0,0,1-2.62,1.25,2.43,2.43,0,0,1-2.7-2.27c0-1.54,1.26-2.36,3.09-2.36a7.73,7.73,0,0,1,2.23.31v-.25c0-1.3-.8-2-2.16-2A5.07,5.07,0,0,0,367.17,267.86Zm.13,3.69c0,.93.84,1.46,1.82,1.46a2.19,2.19,0,0,0,2.42-2v-.7a7.63,7.63,0,0,0-2.12-.31C368.06,270,367.3,270.63,367.3,271.55Z" fill="#231f20"/><path d="M376.25,271.65a1.07,1.07,0,0,0,1.21,1.21,2.32,2.32,0,0,0,1.06-.25v.92a2.7,2.7,0,0,1-1.31.31,1.85,1.85,0,0,1-2-2v-4.37h-1v-.95h1v-2.19h1.08v2.19h2.29v.95h-2.29Z" fill="#231f20"/><path d="M384.67,264.89V263.7h1.24v1.19Zm.07,8.82v-7.24h1.08v7.24Z" fill="#231f20"/><path d="M389.78,271.65a1.07,1.07,0,0,0,1.22,1.21,2.28,2.28,0,0,0,1.05-.25v.92a2.66,2.66,0,0,1-1.3.31,1.85,1.85,0,0,1-2-2v-4.37h-1v-.95h1v-2.19h1.07v2.19h2.3v.95h-2.3Z" fill="#231f20"/><path d="M397,272.94a3,3,0,0,0,2.28-1l.67.6a3.75,3.75,0,0,1-3,1.36,3.79,3.79,0,0,1-.14-7.56c2.14,0,3.37,1.7,3.37,3.83,0,.1,0,.21,0,.34h-5.74A2.53,2.53,0,0,0,397,272.94Zm2.11-3.25a2.38,2.38,0,0,0-2.31-2.46,2.49,2.49,0,0,0-2.35,2.46Z" fill="#231f20"/><path d="M410.35,266.32a2.6,2.6,0,0,1,2.69,2.91v4.48H412v-4.23c0-1.4-.7-2.18-1.87-2.18a2,2,0,0,0-2,2.24v4.17H407v-4.26c0-1.36-.72-2.15-1.86-2.15a2.1,2.1,0,0,0-2,2.28v4.13h-1.08v-7.24h1.08v1.22a2.64,2.64,0,0,1,2.34-1.37,2.45,2.45,0,0,1,2.32,1.44A2.88,2.88,0,0,1,410.35,266.32Z" fill="#231f20"/><path d="M417.77,273.85a5,5,0,0,1-3-1.06l.55-.77a4.2,4.2,0,0,0,2.51.92c.86,0,1.5-.45,1.5-1.15v0c0-.72-.86-1-1.81-1.27-1.14-.32-2.4-.71-2.4-2.05v0a2.2,2.2,0,0,1,2.47-2.08,4.94,4.94,0,0,1,2.6.8l-.49.81a4.12,4.12,0,0,0-2.14-.7c-.85,0-1.4.45-1.4,1.05v0c0,.69.9,1,1.86,1.25,1.12.34,2.33.77,2.33,2.07v0C420.35,273.05,419.21,273.85,417.77,273.85Z" fill="#231f20"/><path d="M427,267.86l-.33-.89a6.08,6.08,0,0,1,2.64-.6c2,0,3.08,1,3.08,2.92v4.42h-1v-1.09a3.16,3.16,0,0,1-2.62,1.25,2.43,2.43,0,0,1-2.7-2.27c0-1.54,1.26-2.36,3.09-2.36a7.73,7.73,0,0,1,2.23.31v-.25c0-1.3-.8-2-2.15-2A5,5,0,0,0,427,267.86Zm.12,3.69c0,.93.84,1.46,1.82,1.46a2.19,2.19,0,0,0,2.43-2v-.7a7.77,7.77,0,0,0-2.13-.31C427.85,270,427.09,270.63,427.09,271.55Z" fill="#231f20"/><path d="M435.73,273.71h-1.08v-7.24h1.08v1.89a3.12,3.12,0,0,1,3-2v1.17h-.09c-1.58,0-2.87,1.13-2.87,3.32Z" fill="#231f20"/><path d="M443.21,272.94a3,3,0,0,0,2.28-1l.67.6a3.75,3.75,0,0,1-3,1.36,3.79,3.79,0,0,1-.14-7.56c2.14,0,3.38,1.7,3.38,3.83a2.12,2.12,0,0,1,0,.34h-5.74A2.53,2.53,0,0,0,443.21,272.94Zm2.11-3.25a2.38,2.38,0,0,0-2.31-2.46,2.49,2.49,0,0,0-2.35,2.46Z" fill="#231f20"/><path d="M456.35,273.87a3.27,3.27,0,0,1-2.77-1.54v1.38H452.5V263.49h1.08v4.44a3.25,3.25,0,0,1,2.77-1.61,3.79,3.79,0,0,1,0,7.55Zm-.19-6.59a2.82,2.82,0,0,0,0,5.62,2.56,2.56,0,0,0,2.55-2.8A2.62,2.62,0,0,0,456.16,267.28Z" fill="#231f20"/><path d="M465.1,273.88a3.78,3.78,0,1,1,3.8-3.8A3.77,3.77,0,0,1,465.1,273.88Zm0-6.61a2.65,2.65,0,0,0-2.64,2.81,2.71,2.71,0,0,0,2.67,2.83,2.66,2.66,0,0,0,2.66-2.8A2.73,2.73,0,0,0,465.1,267.27Z" fill="#231f20"/><path d="M476,266.47h1.07v7.24H476v-1.26a2.75,2.75,0,0,1-2.48,1.42,2.64,2.64,0,0,1-2.77-2.9v-4.5h1.08v4.23a1.92,1.92,0,0,0,2,2.18,2.14,2.14,0,0,0,2.17-2.26Z" fill="#231f20"/><path d="M482.67,276a5.71,5.71,0,0,1-3.29-1l.49-.84a4.65,4.65,0,0,0,2.79.93,2.38,2.38,0,0,0,2.63-2.58v-.85a3.45,3.45,0,0,1-2.84,1.52,3.42,3.42,0,0,1,0-6.83,3.4,3.4,0,0,1,2.83,1.45v-1.3h1.08v6C486.36,274.79,484.9,276,482.67,276Zm0-8.71a2.39,2.39,0,0,0-2.51,2.45,2.45,2.45,0,0,0,2.51,2.48,2.47,2.47,0,1,0,0-4.93Z" fill="#231f20"/><path d="M489.84,273.71h-1.08V263.49h1.08v4.24a2.75,2.75,0,0,1,2.48-1.41,2.64,2.64,0,0,1,2.77,2.89v4.5H494v-4.23a1.92,1.92,0,0,0-2-2.18,2.13,2.13,0,0,0-2.17,2.27Z" fill="#231f20"/><path d="M498.84,271.65a1.07,1.07,0,0,0,1.22,1.21,2.31,2.31,0,0,0,1.05-.25v.92a2.66,2.66,0,0,1-1.3.31,1.85,1.85,0,0,1-2.05-2v-4.37h-1v-.95h1v-2.19h1.08v2.19h2.3v.95h-2.3Z" fill="#231f20"/><path d="M508.7,271.65a1.07,1.07,0,0,0,1.22,1.21,2.31,2.31,0,0,0,1.05-.25v.92a2.69,2.69,0,0,1-1.3.31,1.85,1.85,0,0,1-2.05-2v-4.37h-1v-.95h1v-2.19h1.08v2.19H511v.95h-2.3Z" fill="#231f20"/><path d="M516,273.88a3.78,3.78,0,1,1,3.8-3.8A3.77,3.77,0,0,1,516,273.88Zm0-6.61a2.66,2.66,0,0,0-2.65,2.81,2.72,2.72,0,0,0,2.68,2.83,2.66,2.66,0,0,0,2.66-2.8A2.73,2.73,0,0,0,516,267.27Z" fill="#231f20"/><path d="M524.94,276a5.66,5.66,0,0,1-3.29-1l.49-.84a4.63,4.63,0,0,0,2.78.93,2.39,2.39,0,0,0,2.64-2.58v-.85a3.45,3.45,0,0,1-2.85,1.52,3.42,3.42,0,0,1,0-6.83,3.39,3.39,0,0,1,2.83,1.45v-1.3h1.08v6C528.62,274.79,527.17,276,524.94,276Zm0-8.71a2.39,2.39,0,0,0-2.5,2.45,2.45,2.45,0,0,0,2.5,2.48,2.47,2.47,0,1,0,0-4.93Z" fill="#231f20"/><path d="M534.22,272.94a3,3,0,0,0,2.28-1l.68.6a3.75,3.75,0,0,1-3,1.36,3.79,3.79,0,0,1-.14-7.56c2.15,0,3.38,1.7,3.38,3.83,0,.1,0,.21,0,.34h-5.75A2.54,2.54,0,0,0,534.22,272.94Zm2.12-3.25a2.39,2.39,0,0,0-2.32-2.46,2.49,2.49,0,0,0-2.35,2.46Z" fill="#231f20"/><path d="M540.77,271.65a1.07,1.07,0,0,0,1.22,1.21,2.31,2.31,0,0,0,1-.25v.92a2.66,2.66,0,0,1-1.3.31,1.85,1.85,0,0,1-2-2v-4.37h-1v-.95h1v-2.19h1.08v2.19h2.3v.95h-2.3Z" fill="#231f20"/><path d="M546.05,273.71H545V263.49h1.08v4.24a2.75,2.75,0,0,1,2.48-1.41,2.64,2.64,0,0,1,2.77,2.89v4.5h-1.08v-4.23a1.92,1.92,0,0,0-2-2.18,2.13,2.13,0,0,0-2.17,2.27Z" fill="#231f20"/><path d="M556.79,272.94a3,3,0,0,0,2.28-1l.67.6a3.73,3.73,0,0,1-3,1.36,3.79,3.79,0,0,1-.14-7.56c2.14,0,3.38,1.7,3.38,3.83a2.12,2.12,0,0,1,0,.34h-5.74A2.53,2.53,0,0,0,556.79,272.94Zm2.11-3.25a2.38,2.38,0,0,0-2.31-2.46,2.49,2.49,0,0,0-2.35,2.46Z" fill="#231f20"/><path d="M563,273.71h-1.08v-7.24H563v1.89a3.12,3.12,0,0,1,3-2v1.17h-.09c-1.58,0-2.87,1.13-2.87,3.32Z" fill="#231f20"/><path d="M572.08,266.61a1.88,1.88,0,0,0-2.05-1.84,3.29,3.29,0,0,0-2.55,1.32l-.71-.68a4,4,0,0,1,3.29-1.63,2.85,2.85,0,0,1,3.14,2.79c0,1.76-1.32,2.63-2.92,2.86l-.14,1.51h-.71l-.21-2.27.07-.07C571.11,268.56,572.08,267.8,572.08,266.61Zm-2.94,7.1v-1.47h1.28v1.47Z" fill="#231f20"/></g></svg>